<svg  width="74" height="74" viewBox="0 0 74 74" xmlns="http://www.w3.org/2000/svg">
              <g clip-path="url(#clip0)">
                <path
                  d="M71.5333 18.4936V17.0333C71.5333 14.9899 69.8768 13.3333 67.8333 13.3333H66.6V9.63333C66.6 7.58988 64.9435 5.93333 62.9 5.93333H61.6667V3.46667C61.6667 2.10436 60.5623 1 59.2 1H14.8C13.4377 1 12.3333 2.10436 12.3333 3.46667V5.93333H11.1C9.05655 5.93333 7.4 7.58988 7.4 9.63333V13.3333H6.16667C4.12321 13.3333 2.46667 14.9899 2.46667 17.0333V18.4936C0.993634 19.0144 0.00647671 20.4043 0 21.9667V60.2C0 61.5623 1.10436 62.6667 2.46667 62.6667H9.86667V72.5333C9.86667 73.8956 10.971 75 12.3333 75H61.6667C63.029 75 64.1333 73.8956 64.1333 72.5333V62.6667H71.5333C72.8956 62.6667 74 61.5623 74 60.2V21.9667C73.9935 20.4043 73.0064 19.0144 71.5333 18.4936ZM62.9 8.4C63.5812 8.4 64.1333 8.95218 64.1333 9.63333V13.3333H61.6667V8.4H62.9ZM14.8 3.46667H59.2V13.3333H14.8V3.46667ZM9.86667 9.63333C9.86667 8.95218 10.4188 8.4 11.1 8.4H12.3333V13.3333H9.86667V9.63333ZM4.93333 17.0333C4.93333 16.3522 5.48552 15.8 6.16667 15.8H67.8333C68.5145 15.8 69.0667 16.3522 69.0667 17.0333V18.2667H4.93333V17.0333ZM25.9 47.8667C25.9 49.9101 24.2435 51.5667 22.2 51.5667C20.1565 51.5667 18.5 49.9101 18.5 47.8667H25.9ZM22.2 54.0333C25.6041 54.0293 28.3626 51.2707 28.3667 47.8667H61.6667V64.624L47.7386 50.6947C47.4901 50.4748 47.1735 50.3472 46.842 50.3333C46.5069 50.3401 46.1889 50.4831 45.9614 50.7292L33.6022 64.1171L25.4918 56.817C25.022 56.3918 24.3064 56.3918 23.8366 56.817L12.3333 67.2781V47.8667H16.0333C16.0374 51.2707 18.7959 54.0293 22.2 54.0333ZM65.3667 47.8667C66.0478 47.8667 66.6 48.4188 66.6 49.1V51.5667C66.6 52.2478 66.0478 52.8 65.3667 52.8H64.1333V47.8667H65.3667ZM9.86667 52.8H8.63333C7.95218 52.8 7.4 52.2478 7.4 51.5667V49.1C7.4 48.4188 7.95218 47.8667 8.63333 47.8667H9.86667V52.8ZM12.3333 72.5333V70.613L24.6667 59.3971L36.1712 69.7497C36.497 70.0549 36.9623 70.1602 37.3878 70.0251C37.8133 69.8899 38.1325 69.5354 38.2224 69.0981C38.3124 68.6608 38.159 68.2091 37.8214 67.917L35.4324 65.7673L46.9024 53.3464L61.6667 68.1131V72.5333H12.3333ZM64.1333 60.2V55.2667H65.3667C67.4101 55.2667 69.0667 53.6101 69.0667 51.5667V49.1C69.0667 47.0565 67.4101 45.4 65.3667 45.4H8.63333C6.58988 45.4 4.93333 47.0565 4.93333 49.1V51.5667C4.93333 53.6101 6.58988 55.2667 8.63333 55.2667H9.86667V60.2H2.46667V21.9667C2.46667 21.2855 3.01885 20.7333 3.7 20.7333H70.3C70.9812 20.7333 71.5333 21.2855 71.5333 21.9667V23.2H7.4C6.71885 23.2 6.16667 23.7522 6.16667 24.4333C6.16667 25.1145 6.71885 25.6667 7.4 25.6667H71.5333V60.2H64.1333Z"
                  />
                <path
                  d="M9.86663 31.8333C7.82317 31.8333 6.16663 33.4899 6.16663 35.5333C6.16663 37.5768 7.82317 39.2334 9.86663 39.2334C11.9101 39.2334 13.5666 37.5768 13.5666 35.5333C13.5666 33.4899 11.9101 31.8333 9.86663 31.8333ZM9.86663 36.7667C9.18548 36.7667 8.63329 36.2145 8.63329 35.5333C8.63329 34.8522 9.18548 34.3 9.86663 34.3C10.5478 34.3 11.1 34.8522 11.1 35.5333C11.1 36.2145 10.5478 36.7667 9.86663 36.7667Z"
                 />
                <path
                  d="M19.7333 31.8333C17.6899 31.8333 16.0333 33.4899 16.0333 35.5333C16.0333 37.5768 17.6899 39.2334 19.7333 39.2334C21.7768 39.2334 23.4333 37.5768 23.4333 35.5333C23.4333 33.4899 21.7768 31.8333 19.7333 31.8333ZM19.7333 36.7667C19.0522 36.7667 18.5 36.2145 18.5 35.5333C18.5 34.8522 19.0522 34.3 19.7333 34.3C20.4145 34.3 20.9667 34.8522 20.9667 35.5333C20.9667 36.2145 20.4145 36.7667 19.7333 36.7667Z"
                  />
                <path
                  d="M64.1333 31.8333C62.0899 31.8333 60.4333 33.4899 60.4333 35.5333C60.4333 37.5768 62.0899 39.2334 64.1333 39.2334C66.1768 39.2334 67.8333 37.5768 67.8333 35.5333C67.8333 33.4899 66.1768 31.8333 64.1333 31.8333ZM64.1333 36.7667C63.4522 36.7667 62.9 36.2145 62.9 35.5333C62.9 34.8522 63.4522 34.3 64.1333 34.3C64.8145 34.3 65.3667 34.8522 65.3667 35.5333C65.3667 36.2145 64.8145 36.7667 64.1333 36.7667Z"
                   />
              </g>
              <defs>
                <clipPath id="clip0">
                  <rect width="74" height="74" fill="white" />
                </clipPath>
              </defs>
            </svg>