<svg width="74" height="74" viewBox="0 0 74 74" fill="none" xmlns="http://www.w3.org/2000/svg">
<g clip-path="url(#clip0)">
<g clip-path="url(#clip1)">
<path d="M73.9164 31.1868C73.9065 31.1572 73.9016 31.1276 73.8892 31.0993C73.8374 30.979 73.7667 30.8678 73.6796 30.77L63.1814 19.2223C61.7777 17.6811 59.7901 16.8019 57.7054 16.8H51.8002V4.46667C51.8002 3.10436 50.6959 2 49.3336 2H24.6669C23.3046 2 22.2002 3.10436 22.2002 4.46667V16.8H16.295C14.2104 16.8019 12.2228 17.6811 10.819 19.2223L0.320911 30.77C0.23383 30.8678 0.163039 30.979 0.111244 31.0993C0.0989108 31.1276 0.0939775 31.1572 0.0841108 31.1868C0.0434968 31.2982 0.0198003 31.415 0.0138108 31.5334C0.0125775 31.5568 0.000244141 31.5766 0.000244141 31.6V55.0333C0.00432324 59.1185 3.31503 62.4293 7.40024 62.4333H16.0336L11.5936 68.3533C11.033 69.1008 10.9428 70.1008 11.3607 70.9365C11.7785 71.7721 12.6326 72.3 13.5669 72.3H20.7326L20.6364 72.5134C20.2897 73.2768 20.3545 74.1642 20.8086 74.8691C21.2627 75.574 22.0438 76 22.8823 76H51.1182C51.9567 76 52.7378 75.574 53.1919 74.8691C53.646 74.1642 53.7108 73.2768 53.3641 72.5134L53.2667 72.3H60.4336C61.3679 72.3 62.222 71.7721 62.6398 70.9365C63.0577 70.1008 62.9675 69.1008 62.4069 68.3533L57.9669 62.4333H66.6002C70.6855 62.4293 73.9962 59.1185 74.0002 55.0333V31.6C74.0002 31.5766 73.9879 31.5568 73.9867 31.5334C73.9807 31.415 73.957 31.2982 73.9164 31.1868ZM24.6669 4.46667H49.3336V24.2H24.6669V4.46667ZM12.6444 20.8823C13.5798 19.8542 14.9051 19.2677 16.295 19.2667H22.2002V24.2H20.9669C20.2858 24.2 19.7336 24.7522 19.7336 25.4333C19.7336 26.1145 20.2858 26.6667 20.9669 26.6667H53.0336C53.7147 26.6667 54.2669 26.1145 54.2669 25.4333C54.2669 24.7522 53.7147 24.2 53.0336 24.2H51.8002V19.2667H57.7054C59.0954 19.2677 60.4207 19.8542 61.3561 20.8823L69.9783 30.3667H4.02214L12.6444 20.8823ZM55.5002 59.1453L53.0336 55.856V53.8C53.0336 51.7565 51.377 50.1 49.3336 50.1H24.6669C22.6235 50.1 20.9669 51.7565 20.9669 53.8V55.856L18.5002 59.1453V50.1C18.5057 45.3342 22.3678 41.4721 27.1336 41.4667H46.8669C51.6327 41.4721 55.4948 45.3342 55.5002 50.1V59.1453ZM50.5669 55.0333H23.4336V53.8C23.4336 53.1189 23.9858 52.5667 24.6669 52.5667H49.3336C50.0147 52.5667 50.5669 53.1189 50.5669 53.8V55.0333ZM22.8823 73.5333L27.9278 62.4333H46.0726L51.1231 73.5333H22.8823ZM52.1456 69.8333L48.004 60.7202L47.9905 60.6906C47.9329 60.5678 47.8549 60.4557 47.7598 60.3589C47.7339 60.3317 47.7043 60.3108 47.6772 60.2861C47.5963 60.2146 47.5063 60.1541 47.4096 60.106C47.3731 60.0868 47.3356 60.0695 47.2973 60.0542C47.1603 59.9995 47.0145 59.9699 46.8669 59.9667H27.1336C26.9865 59.9696 26.8412 59.9989 26.7044 60.053C26.6661 60.0683 26.6286 60.0856 26.5921 60.1048C26.4954 60.1528 26.4055 60.2134 26.3245 60.2849C26.2974 60.3095 26.2678 60.3305 26.2419 60.3576C26.1468 60.4544 26.0689 60.5666 26.0112 60.6894L25.9977 60.719L21.8549 69.8333H13.5669L22.8169 57.5H51.1836L60.4336 69.8333H52.1456ZM71.5336 55.0333C71.5336 57.7579 69.3249 59.9667 66.6002 59.9667H57.9669V50.1C57.9594 43.9727 52.9942 39.0075 46.8669 39H27.1336C21.0063 39.0075 16.0411 43.9727 16.0336 50.1V59.9667H7.40024C4.67564 59.9667 2.46691 57.7579 2.46691 55.0333V32.8333H71.5336V55.0333Z" fill="#282A32"/>
<path d="M65.3669 43.9333C67.4103 43.9333 69.0669 42.2768 69.0669 40.2333C69.0669 38.1899 67.4103 36.5333 65.3669 36.5333C63.3234 36.5333 61.6669 38.1899 61.6669 40.2333C61.6669 42.2768 63.3234 43.9333 65.3669 43.9333ZM65.3669 39C66.048 39 66.6002 39.5522 66.6002 40.2333C66.6002 40.9145 66.048 41.4667 65.3669 41.4667C64.6857 41.4667 64.1335 40.9145 64.1335 40.2333C64.1335 39.5522 64.6857 39 65.3669 39Z" fill="#282A32"/>
<path d="M65.3669 48.8667C66.048 48.8667 66.6002 48.3145 66.6002 47.6333C66.6002 46.9522 66.048 46.4 65.3669 46.4C64.6857 46.4 64.1335 46.9522 64.1335 47.6333C64.1335 48.3145 64.6857 48.8667 65.3669 48.8667Z" fill="#282A32"/>
<path d="M65.3669 52.5667C66.048 52.5667 66.6002 52.0145 66.6002 51.3333C66.6002 50.6522 66.048 50.1 65.3669 50.1C64.6857 50.1 64.1335 50.6522 64.1335 51.3333C64.1335 52.0145 64.6857 52.5667 65.3669 52.5667Z" fill="#282A32"/>
<path d="M65.3669 56.2667C66.048 56.2667 66.6002 55.7145 66.6002 55.0333C66.6002 54.3522 66.048 53.8 65.3669 53.8C64.6857 53.8 64.1335 54.3522 64.1335 55.0333C64.1335 55.7145 64.6857 56.2667 65.3669 56.2667Z" fill="#282A32"/>
<path d="M32.067 67.3667H41.9336C42.6148 67.3667 43.167 66.8145 43.167 66.1333C43.167 65.4522 42.6148 64.9 41.9336 64.9H32.067C31.3858 64.9 30.8336 65.4522 30.8336 66.1333C30.8336 66.8145 31.3858 67.3667 32.067 67.3667Z" fill="#282A32"/>
<path d="M44.4003 68.6H29.6003C28.9191 68.6 28.3669 69.1522 28.3669 69.8333C28.3669 70.5145 28.9191 71.0667 29.6003 71.0667H44.4003C45.0814 71.0667 45.6336 70.5145 45.6336 69.8333C45.6336 69.1522 45.0814 68.6 44.4003 68.6Z" fill="#282A32"/>
<path d="M6.16693 39C6.84808 39 7.40026 38.4478 7.40026 37.7667V36.5333C7.40026 35.8522 6.84808 35.3 6.16693 35.3C5.48578 35.3 4.93359 35.8522 4.93359 36.5333V37.7667C4.93359 38.4478 5.48578 39 6.16693 39Z" fill="#282A32"/>
<path d="M6.16693 51.3333C6.84808 51.3333 7.40026 50.7812 7.40026 50.1V42.7C7.40026 42.0189 6.84808 41.4667 6.16693 41.4667C5.48578 41.4667 4.93359 42.0189 4.93359 42.7V50.1C4.93359 50.7812 5.48578 51.3333 6.16693 51.3333Z" fill="#282A32"/>
</g>
</g>
<defs>
<clipPath id="clip0">
<rect width="74" height="74" fill="white" transform="translate(0.000244141)"/>
</clipPath>
<clipPath id="clip1">
<rect width="74" height="74" fill="white" transform="translate(0.000244141 2)"/>
</clipPath>
</defs>
</svg>
