<svg width="74" height="74" viewBox="0 0 74 74" fill="none" xmlns="http://www.w3.org/2000/svg">
<g clip-path="url(#clip0)">
<path d="M73.4661 30.9465C73.1353 30.7512 72.726 30.7448 72.3897 30.93L58.8516 38.3834V35.7862C58.8516 33.0342 56.6126 30.7953 53.8606 30.7953H51.0379C54.8556 28.3453 57.3902 24.0629 57.3902 19.1995C57.3902 16.7551 56.7411 14.3538 55.513 12.2552C55.2099 11.7374 54.5447 11.5631 54.0271 11.8665C53.5094 12.1694 53.3354 12.8347 53.6383 13.3524C54.6719 15.1184 55.218 17.1404 55.218 19.1997C55.218 25.5936 50.0162 30.7954 43.6223 30.7954C37.2284 30.7954 32.0266 25.5936 32.0266 19.1997C32.0266 12.8058 37.2284 7.60379 43.6223 7.60379C46.3454 7.60379 48.9916 8.56637 51.0733 10.3143C51.5329 10.7001 52.2177 10.6405 52.6035 10.1808C52.9892 9.72146 52.9295 9.03639 52.4701 8.65063C49.9976 6.57473 46.8555 5.43149 43.6223 5.43149C36.8984 5.43149 31.2866 10.277 30.091 16.6593C28.2601 14.4377 25.4885 13.0188 22.3915 13.0188C16.8917 13.0188 12.4173 17.4933 12.4173 22.9932C12.4173 26.1497 13.8928 28.9665 16.1885 30.7956C13.4391 30.7986 11.2032 33.0362 11.2032 35.7864V35.9623H6.78113L1.55156 33.4849C0.862867 33.1335 -0.0223874 33.6937 0.000448557 34.4664V47.9443C-0.022821 48.7173 0.864023 49.2773 1.55156 48.926L6.78113 46.4486H11.2034V63.5771C11.2034 66.3293 13.4423 68.5682 16.1943 68.5682H44.4756C45.0754 68.5682 45.5618 68.082 45.5618 67.4821C45.5618 66.8821 45.0756 66.3959 44.4756 66.3959H16.1943C14.64 66.3959 13.3755 65.1314 13.3755 63.577V35.7864C13.3755 34.2321 14.64 32.9676 16.1943 32.9676H53.8606C55.4149 32.9676 56.6794 34.2319 56.6794 35.7864V63.5773C56.6794 65.1315 55.4149 66.3962 53.8606 66.3962H48.8199C48.2201 66.3962 47.7338 66.8824 47.7338 67.4824C47.7338 68.0823 48.22 68.5685 48.8199 68.5685H53.8606C56.6126 68.5685 58.8516 66.3296 58.8516 63.5774V54.9566L72.3897 62.41C73.0791 62.8177 74.0243 62.2593 73.9996 61.4586V31.8816C73.9996 31.4974 73.7967 31.1419 73.4661 30.9465ZM2.17261 36.1827L5.45058 37.7357V44.6753L2.17261 46.2283V36.1827ZM7.62288 44.2766V38.1344H11.2034V44.2766H7.62288ZM14.5894 22.9932C14.5894 18.6911 18.0894 15.191 22.3915 15.191C26.6936 15.191 30.1938 18.6911 30.1938 22.9932C30.1938 27.2953 26.6938 30.7954 22.3915 30.7954C18.0896 30.7954 14.5894 27.2953 14.5894 22.9932ZM28.5948 30.7954C30.057 29.6305 31.1851 28.0649 31.8119 26.2652C32.9091 28.0922 34.4162 29.646 36.2076 30.7954H28.5948ZM71.8274 59.6209L58.8517 52.4768V40.8633L71.8274 33.7193V59.6209Z" fill="white"/>
<path d="M38.0851 19.1997C38.0851 22.2529 40.569 24.7368 43.6222 24.7368C46.6753 24.7368 49.1594 22.2529 49.1594 19.1997C49.1594 16.1465 46.6754 13.6625 43.6222 13.6625C40.569 13.6625 38.0851 16.1465 38.0851 19.1997ZM46.9871 19.1997C46.9871 21.055 45.4776 22.5645 43.6222 22.5645C41.7667 22.5645 40.2572 21.055 40.2572 19.1997C40.2572 17.3443 41.7667 15.8347 43.6222 15.8347C45.4776 15.8348 46.9871 17.3443 46.9871 19.1997Z" fill="white"/>
<path d="M22.3916 26.9062C24.5493 26.9062 26.3046 25.1507 26.3046 22.9932C26.3046 20.8356 24.5493 19.0803 22.3916 19.0803C20.234 19.0803 18.4785 20.8356 18.4785 22.9932C18.4787 25.1509 20.234 26.9062 22.3916 26.9062ZM22.3916 21.2525C23.3515 21.2525 24.1324 22.0334 24.1324 22.9932C24.1324 23.9532 23.3515 24.7341 22.3916 24.7341C21.4317 24.7341 20.6508 23.9532 20.6508 22.9932C20.6508 22.0334 21.4317 21.2525 22.3916 21.2525Z" fill="white"/>
<path d="M47.7338 52.5146V40.666C47.7338 39.2687 46.597 38.1318 45.1996 38.1318H33.452C32.8522 38.1318 32.3658 38.618 32.3658 39.218C32.3658 39.8179 32.852 40.3041 33.452 40.3041H45.1996C45.3992 40.3041 45.5617 40.4664 45.5617 40.6662V52.5147C45.5617 52.7145 45.3992 52.8768 45.1996 52.8768H24.8551C24.6555 52.8768 24.4931 52.7145 24.4931 52.5147V40.6662C24.4931 40.4664 24.6555 40.3041 24.8551 40.3041H29.1077C29.7075 40.3041 30.1938 39.8179 30.1938 39.218C30.1938 38.618 29.7076 38.1318 29.1077 38.1318H24.8551C23.4578 38.1318 22.3209 39.2687 22.3209 40.666V52.5146C22.3209 53.9119 23.4578 55.0488 24.8551 55.0488H45.1996C46.597 55.0488 47.7338 53.9119 47.7338 52.5146Z" fill="white"/>
<path d="M40.8703 58.8239C40.2705 58.8239 39.7843 59.3101 39.7843 59.9101C39.7843 60.51 40.2705 60.9962 40.8703 60.9962H43.5795C44.1794 60.9962 44.6657 60.51 44.6657 59.9101C44.6657 59.3101 44.1795 58.8239 43.5795 58.8239H40.8703Z" fill="white"/>
<path d="M33.6728 58.8239C33.073 58.8239 32.5867 59.3101 32.5867 59.9101C32.5867 60.51 33.0729 60.9962 33.6728 60.9962H36.3822C36.982 60.9962 37.4683 60.51 37.4683 59.9101C37.4683 59.3101 36.9821 58.8239 36.3822 58.8239H33.6728Z" fill="white"/>
<path d="M26.4751 58.8239C25.8753 58.8239 25.3889 59.3101 25.3889 59.9101C25.3889 60.51 25.8753 60.9962 26.4751 60.9962H29.1845C29.7843 60.9962 30.2706 60.51 30.2706 59.9101C30.2706 59.3101 29.7844 58.8239 29.1845 58.8239H26.4751Z" fill="white"/>
</g>
<defs>
<clipPath id="clip0">
<rect width="74" height="74" fill="white"/>
</clipPath>
</defs>
</svg>
