<svg width="74" height="61" viewBox="0 0 74 61" fill="none" xmlns="http://www.w3.org/2000/svg">
<path d="M58.1016 17.4286C57.3037 17.4286 56.6562 18.0793 56.6562 18.881C56.6562 19.6827 57.3037 20.3334 58.1016 20.3334C58.8994 20.3334 59.5469 19.6827 59.5469 18.881C59.5469 18.0793 58.8994 17.4286 58.1016 17.4286Z" fill="#282A32"/>
<path d="M69.6641 11.619H53.7916L49.2091 2.40906C48.4696 0.923134 46.9835 0 45.3308 0H28.6692C27.0162 0 25.5301 0.923133 24.7909 2.40921L20.2084 11.619H17.3438V10.1667C17.3438 7.76414 15.3986 5.80952 13.0078 5.80952H10.1172C7.72635 5.80952 5.78125 7.76414 5.78125 10.1667V11.619H4.33594C1.9451 11.619 0 13.5737 0 15.9762C0 19.923 0 55.1075 0 56.6429C0 59.0454 1.9451 61 4.33594 61H69.6641C72.0549 61 74 59.0454 74 56.6429C74 52.696 74 17.5115 74 15.9762C74 13.5737 72.0549 11.619 69.6641 11.619ZM27.3764 3.70822C27.623 3.21267 28.1183 2.90476 28.6692 2.90476H45.3308C45.8817 2.90476 46.3772 3.21267 46.6238 3.70822L50.5599 11.619H23.4401L27.3764 3.70822ZM8.67188 10.1667C8.67188 9.36582 9.32024 8.71429 10.1172 8.71429H13.0078C13.8048 8.71429 14.4531 9.36582 14.4531 10.1667V11.619H8.67188V10.1667ZM2.89062 26.1283H21.1667C19.2459 29.1436 18.2109 32.6774 18.2109 36.3095C18.2109 39.9419 19.2461 43.4615 21.1666 46.4762H2.89062V26.1283ZM37 20.3333C45.6911 20.3333 52.8984 27.4092 52.8984 36.3095C52.8984 45.1998 45.7012 52.2857 37 52.2857C28.291 52.2857 21.1016 45.192 21.1016 36.3095C21.1016 27.4202 28.2978 20.3333 37 20.3333ZM71.1094 56.6429C71.1094 57.4437 70.461 58.0952 69.6641 58.0952H4.33594C3.53899 58.0952 2.89062 57.4437 2.89062 56.6429V49.381H23.4467C26.9783 53.0805 31.88 55.1905 37 55.1905C42.1209 55.1905 47.023 53.0799 50.5534 49.381H71.1094V56.6429ZM71.1094 46.4762H52.8333C54.7541 43.4609 55.7891 39.9418 55.7891 36.3095C55.7891 32.6773 54.7541 29.1581 52.8333 26.1429H71.1094V46.4762ZM71.1094 23.2381H50.5533C47.0218 19.5386 42.1202 17.4286 37 17.4286C31.8793 17.4286 26.9772 19.5392 23.4466 23.2381H2.89062V15.9762C2.89062 15.1753 3.53899 14.5238 4.33594 14.5238C5.64843 14.5238 67.6322 14.5238 69.6641 14.5238C70.461 14.5238 71.1094 15.1753 71.1094 15.9762V23.2381Z" fill="#282A32"/>
<path d="M41.3359 5.80951H32.6641C31.8658 5.80951 31.2188 6.45974 31.2188 7.26189C31.2188 8.06404 31.8658 8.71427 32.6641 8.71427H41.3359C42.134 8.71427 42.7812 8.06404 42.7812 7.26189C42.7812 6.45974 42.134 5.80951 41.3359 5.80951Z" fill="#282A32"/>
<path d="M37 23.2381C29.8275 23.2381 23.9922 29.1019 23.9922 36.3095C23.9922 43.5171 29.8275 49.381 37 49.381C44.1725 49.381 50.0078 43.5171 50.0078 36.3095C50.0078 29.1019 44.1725 23.2381 37 23.2381ZM37 46.4762C31.4214 46.4762 26.8828 41.9154 26.8828 36.3095C26.8828 30.7036 31.4214 26.1429 37 26.1429C42.5786 26.1429 47.1172 30.7036 47.1172 36.3095C47.1172 41.9154 42.5786 46.4762 37 46.4762Z" fill="#282A32"/>
<path d="M37 29.0476C33.0153 29.0476 29.7734 32.3053 29.7734 36.3095C29.7734 37.1117 30.4205 37.7619 31.2188 37.7619C32.017 37.7619 32.6641 37.1117 32.6641 36.3095C32.6641 33.907 34.6092 31.9524 37 31.9524C37.7981 31.9524 38.4453 31.3021 38.4453 30.5C38.4453 29.6978 37.7981 29.0476 37 29.0476Z" fill="#282A32"/>
<path d="M66.7734 17.4286H63.8828C63.0847 17.4286 62.4375 18.0788 62.4375 18.881C62.4375 19.6831 63.0847 20.3334 63.8828 20.3334H66.7734C67.5715 20.3334 68.2187 19.6831 68.2187 18.881C68.2187 18.0788 67.5715 17.4286 66.7734 17.4286Z" fill="#282A32"/>
</svg>
