<svg width="84" height="74" viewBox="0 0 84 74" fill="none" xmlns="http://www.w3.org/2000/svg">
<path d="M59.5994 36.5086C59.5994 33.407 57.0761 30.8836 53.9744 30.8836C50.8727 30.8836 48.3494 33.407 48.3494 36.5086C48.3494 39.6103 50.8727 42.1337 53.9744 42.1337C57.0761 42.1337 59.5994 39.6103 59.5994 36.5086ZM50.7977 36.5086C50.7977 34.757 52.2227 33.3319 53.9744 33.3319C55.7261 33.3319 57.1511 34.757 57.1511 36.5086C57.1511 38.2603 55.7261 39.6854 53.9744 39.6854C52.2227 39.6854 50.7977 38.2603 50.7977 36.5086Z" fill="#282A32"/>
<path d="M82.3443 22.8354C79.7711 22.8354 77.6778 20.7421 77.6778 18.169C77.6778 17.4929 77.1298 16.9448 76.4537 16.9448H63.0126L47.1463 7.32627C47.317 6.78944 47.4093 6.21785 47.4093 5.62504C47.4093 2.52337 44.8859 0 41.7842 0C38.6826 0 36.1592 2.52337 36.1592 5.62504C36.1592 6.21769 36.2514 6.78928 36.4221 7.32627L20.5559 16.9448H7.11474C6.43869 16.9448 5.8906 17.4929 5.8906 18.169C5.8906 20.7421 3.7973 22.8354 1.22415 22.8354C0.548091 22.8354 0 23.3835 0 24.0595V66.8853C0 67.5613 0.548091 68.1094 1.22415 68.1094C3.7973 68.1094 5.8906 70.2027 5.8906 72.7758C5.8906 73.4519 6.43869 74 7.11474 74H63.9906C64.6666 74 65.2147 73.4519 65.2147 72.7758C65.2147 72.0998 64.6666 71.5517 63.9906 71.5517H8.23345C7.72078 68.6077 5.39229 66.2791 2.44829 65.7664V25.1783C5.39229 24.6656 7.72078 22.3369 8.23345 19.3931H75.3348C75.8475 22.3371 78.1761 24.6656 81.12 25.1783V65.7664C78.176 66.2791 75.8475 68.6077 75.3348 71.5515H69.6086C68.9325 71.5515 68.3844 72.0996 68.3844 72.7757C68.3844 73.4517 68.9325 73.9998 69.6086 73.9998H76.4535C77.1296 73.9998 77.6777 73.4517 77.6777 72.7757C77.6777 70.2025 79.771 68.1092 82.3441 68.1092C83.0202 68.1092 83.5683 67.5611 83.5683 66.8851V24.0595C83.5684 23.3835 83.0203 22.8354 82.3443 22.8354ZM41.7842 2.44829C43.5359 2.44829 44.961 3.87336 44.961 5.62504C44.961 7.37671 43.5359 8.80178 41.7842 8.80178C40.0325 8.80178 38.6075 7.37671 38.6075 5.62504C38.6075 3.87336 40.0325 2.44829 41.7842 2.44829ZM37.6556 9.4416C38.6839 10.5531 40.1541 11.2501 41.7842 11.2501C43.4143 11.2501 44.8846 10.5531 45.9127 9.4416L58.2896 16.9448H25.2785L37.6556 9.4416Z" fill="#282A32"/>
<path d="M11.5752 25.1058H15.3627C16.0387 25.1058 16.5868 24.5577 16.5868 23.8816C16.5868 23.2056 16.0387 22.6575 15.3627 22.6575H10.9007C10.468 22.6575 10.0675 22.8858 9.84716 23.2583C8.98781 24.7106 7.76595 25.9326 6.31346 26.792C5.94099 27.0123 5.71265 27.4129 5.71265 27.8456V63.099C5.71265 63.5317 5.94099 63.9323 6.31346 64.1526C7.76595 65.012 8.98797 66.2338 9.84716 67.6863C10.0675 68.0588 10.468 68.2871 10.9007 68.2871H72.6674C73.1001 68.2871 73.5007 68.0588 73.721 67.6863C74.5802 66.2338 75.8022 65.012 77.2547 64.1526C77.6272 63.9323 77.8555 63.5317 77.8555 63.099V27.8456C77.8555 27.4129 77.6272 27.0123 77.2547 26.792C75.8022 25.9326 74.5804 24.7108 73.721 23.2583C73.5007 22.8858 73.1001 22.6575 72.6674 22.6575H21.0228C20.3468 22.6575 19.7987 23.2056 19.7987 23.8816C19.7987 24.5577 20.3468 25.1058 21.0228 25.1058H71.993C72.8974 26.452 74.061 27.6156 75.4072 28.52V53.4149L65.1301 43.1378C64.9006 42.9081 64.5892 42.7792 64.2646 42.7792C63.9399 42.7792 63.6285 42.9081 63.399 43.1378L53.9744 52.5624L36.3888 34.9766C35.9107 34.4986 35.1356 34.4986 34.6577 34.9766L25.7813 43.853L20.1693 38.241C19.9398 38.0114 19.6284 37.8824 19.3038 37.8824C18.9791 37.8824 18.6677 38.0114 18.4382 38.241L8.16094 48.5183V28.52C9.50734 27.6156 10.6708 26.452 11.5752 25.1058ZM19.3036 40.8378L28.4485 49.9827C28.6874 50.2217 29.0008 50.3413 29.314 50.3413C29.6273 50.3413 29.9406 50.2218 30.1796 49.9827C30.6577 49.5046 30.6577 48.7295 30.1796 48.2516L27.5124 45.5844L35.5232 37.5736L53.1088 55.1592L56.7633 58.8139C57.0023 59.053 57.3157 59.1725 57.6289 59.1725C57.9421 59.1725 58.2555 59.053 58.4944 58.8139C58.9725 58.3358 58.9725 57.5607 58.4944 57.0828L55.7055 54.2938L64.2646 45.7348L75.4074 56.8773V62.4246C74.061 63.3292 72.8974 64.4926 71.9932 65.839H11.5753C10.6709 64.4926 9.50734 63.329 8.16094 62.4246V51.9807L19.3036 40.8378Z" fill="#282A32"/>
</svg>
