<svg width="74" height="72" viewBox="0 0 74 72" fill="none" xmlns="http://www.w3.org/2000/svg">
<path d="M70.3002 0H3.70024C2.71929 0.00114244 1.77885 0.39133 1.08521 1.08497C0.391574 1.7786 0.00138658 2.71905 0.000244141 3.7V67.8333C0.00138658 68.8143 0.391574 69.7547 1.08521 70.4484C1.77885 71.142 2.71929 71.5322 3.70024 71.5333H70.3002C71.2812 71.5322 72.2216 71.142 72.9153 70.4484C73.6089 69.7547 73.9991 68.8143 74.0002 67.8333V3.7C73.9991 2.71905 73.6089 1.7786 72.9153 1.08497C72.2216 0.39133 71.2812 0.00114244 70.3002 0ZM3.70024 2.46667H70.3002C70.6272 2.46703 70.9407 2.59709 71.1719 2.82831C71.4032 3.05952 71.5332 3.37301 71.5336 3.7V9.86667H2.46691V3.7C2.46728 3.37301 2.59734 3.05952 2.82855 2.82831C3.05977 2.59709 3.37326 2.46703 3.70024 2.46667ZM70.3002 69.0667H3.70024C3.37326 69.0663 3.05977 68.9362 2.82855 68.705C2.59734 68.4738 2.46728 68.1603 2.46691 67.8333V12.3333H71.5336V67.8333C71.5332 68.1603 71.4032 68.4738 71.1719 68.705C70.9407 68.9362 70.6272 69.0663 70.3002 69.0667Z" fill="#282A32"/>
<path d="M16.0336 7.40002C16.7148 7.40002 17.267 6.84783 17.267 6.16668C17.267 5.48553 16.7148 4.93335 16.0336 4.93335C15.3525 4.93335 14.8003 5.48553 14.8003 6.16668C14.8003 6.84783 15.3525 7.40002 16.0336 7.40002Z" fill="#282A32"/>
<path d="M11.1003 7.40002C11.7814 7.40002 12.3336 6.84783 12.3336 6.16668C12.3336 5.48553 11.7814 4.93335 11.1003 4.93335C10.4191 4.93335 9.86694 5.48553 9.86694 6.16668C9.86694 6.84783 10.4191 7.40002 11.1003 7.40002Z" fill="#282A32"/>
<path d="M6.16693 7.40002C6.84808 7.40002 7.40026 6.84783 7.40026 6.16668C7.40026 5.48553 6.84808 4.93335 6.16693 4.93335C5.48578 4.93335 4.93359 5.48553 4.93359 6.16668C4.93359 6.84783 5.48578 7.40002 6.16693 7.40002Z" fill="#282A32"/>
<path d="M41.9335 59.2C42.6147 59.2 43.1669 58.6478 43.1669 57.9667C43.1669 57.2855 42.6147 56.7333 41.9335 56.7333C41.2524 56.7333 40.7002 57.2855 40.7002 57.9667C40.7002 58.6478 41.2524 59.2 41.9335 59.2Z" fill="#282A32"/>
<path d="M37.0003 59.2C37.6815 59.2 38.2336 58.6478 38.2336 57.9667C38.2336 57.2855 37.6815 56.7333 37.0003 56.7333C36.3191 56.7333 35.767 57.2855 35.767 57.9667C35.767 58.6478 36.3191 59.2 37.0003 59.2Z" fill="#282A32"/>
<path d="M32.067 59.2C32.7481 59.2 33.3003 58.6478 33.3003 57.9667C33.3003 57.2855 32.7481 56.7333 32.067 56.7333C31.3858 56.7333 30.8336 57.2855 30.8336 57.9667C30.8336 58.6478 31.3858 59.2 32.067 59.2Z" fill="#282A32"/>
<path d="M55.5003 22.2H18.5003C18.1732 22.2 17.8595 22.33 17.6282 22.5612C17.3969 22.7925 17.267 23.1062 17.267 23.4333V53.0333C17.267 53.3604 17.3969 53.6742 17.6282 53.9054C17.8595 54.1367 18.1732 54.2667 18.5003 54.2667H55.5003C55.8274 54.2667 56.1411 54.1367 56.3724 53.9054C56.6037 53.6742 56.7336 53.3604 56.7336 53.0333V23.4333C56.7336 23.1062 56.6037 22.7925 56.3724 22.5612C56.1411 22.33 55.8274 22.2 55.5003 22.2ZM54.267 24.6667V49.3333L49.087 42.4267C48.9721 42.2735 48.8231 42.1492 48.6519 42.0636C48.4806 41.9779 48.2918 41.9333 48.1003 41.9333C47.9088 41.9333 47.72 41.9779 47.5487 42.0636C47.3775 42.1492 47.2285 42.2735 47.1136 42.4267L42.8697 48.0846L38.0579 40.0648C37.9483 39.8822 37.7933 39.7311 37.608 39.6261C37.4226 39.5212 37.2133 39.466 37.0003 39.466C36.7873 39.466 36.578 39.5212 36.3926 39.6261C36.2073 39.7311 36.0523 39.8822 35.9427 40.0648L31.7169 47.108L27.0034 37.6811C26.9009 37.4763 26.7435 37.304 26.5486 37.1836C26.3538 37.0632 26.1293 36.9995 25.9003 36.9995C25.6713 36.9995 25.4468 37.0632 25.252 37.1836C25.0571 37.304 24.8997 37.4763 24.7972 37.6811L19.7336 47.8089V24.6667H54.267ZM28.9019 51.8H20.4958L25.9003 40.9912L30.2127 49.6156L28.9019 51.8ZM37.0003 43.0972L42.2219 51.8H31.7787L37.0003 43.0972ZM44.2401 50.3692L48.1003 45.2222L53.0336 51.8H45.0987L44.2401 50.3692Z" fill="#282A32"/>
<path d="M65.3669 24.6667C65.694 24.6667 66.0077 24.5367 66.239 24.3054C66.4703 24.0741 66.6002 23.7604 66.6002 23.4333C66.6002 23.1062 66.4703 22.7925 66.239 22.5612C66.0077 22.33 65.694 22.2 65.3669 22.2H60.4335C60.1064 22.2 59.7927 22.33 59.5614 22.5612C59.3301 22.7925 59.2002 23.1062 59.2002 23.4333V53.0333C59.2002 53.3604 59.3301 53.6742 59.5614 53.9054C59.7927 54.1367 60.1064 54.2667 60.4335 54.2667H65.3669C65.694 54.2667 66.0077 54.1367 66.239 53.9054C66.4703 53.6742 66.6002 53.3604 66.6002 53.0333C66.6002 52.7062 66.4703 52.3925 66.239 52.1612C66.0077 51.93 65.694 51.8 65.3669 51.8H61.6669V24.6667H65.3669Z" fill="#282A32"/>
<path d="M13.5669 22.2H8.6336C8.3065 22.2 7.9928 22.33 7.7615 22.5612C7.53021 22.7925 7.40027 23.1062 7.40027 23.4333C7.40027 23.7604 7.53021 24.0741 7.7615 24.3054C7.9928 24.5367 8.3065 24.6667 8.6336 24.6667H12.3336V51.8H8.6336C8.3065 51.8 7.9928 51.93 7.7615 52.1612C7.53021 52.3925 7.40027 52.7062 7.40027 53.0333C7.40027 53.3604 7.53021 53.6742 7.7615 53.9054C7.9928 54.1367 8.3065 54.2667 8.6336 54.2667H13.5669C13.894 54.2667 14.2077 54.1367 14.439 53.9054C14.6703 53.6742 14.8003 53.3604 14.8003 53.0333V23.4333C14.8003 23.1062 14.6703 22.7925 14.439 22.5612C14.2077 22.33 13.894 22.2 13.5669 22.2Z" fill="#282A32"/>
<path d="M43.1669 37C43.8481 37 44.4003 36.4478 44.4003 35.7667C44.4003 35.0855 43.8481 34.5333 43.1669 34.5333C42.4858 34.5333 41.9336 35.0855 41.9336 35.7667C41.9336 36.4478 42.4858 37 43.1669 37Z" fill="#282A32"/>
</svg>
