<svg width="74" height="79" viewBox="0 0 74 79" fill="none" xmlns="http://www.w3.org/2000/svg">
<path d="M69.5684 64.2149C69.0756 63.7221 68.2767 63.7221 67.7838 64.2149L66.8915 65.1072L65.9992 64.2149C65.5064 63.7221 64.7075 63.7221 64.2146 64.2149C63.7218 64.7078 63.7218 65.5067 64.2146 65.9995L65.1069 66.8918L64.2146 67.7841C63.7218 68.277 63.7218 69.0759 64.2146 69.5687C64.461 69.8152 64.7841 69.9385 65.1069 69.9385C65.4297 69.9385 65.7528 69.8152 65.9992 69.5687L66.8915 68.6764L67.7838 69.5687C68.0302 69.8152 68.3533 69.9385 68.6761 69.9385C68.9989 69.9385 69.322 69.8152 69.5684 69.5687C70.0613 69.0759 70.0613 68.277 69.5684 67.7841L68.6761 66.8918L69.5684 65.9995C70.0613 65.5067 70.0613 64.7081 69.5684 64.2149Z" fill="#282A32"/>
<path d="M72.5707 33.2793C71.7816 33.2793 71.1414 33.9192 71.1414 34.7086C71.1414 35.4978 71.7812 36.1376 72.5707 36.1376C73.3601 36.1376 74 35.4978 74 34.7086C74 33.9192 73.3601 33.2793 72.5707 33.2793Z" fill="#282A32"/>
<path d="M68.1533 45.4361C68.1533 43.3483 66.4548 41.6498 64.367 41.6498C62.2792 41.6498 60.5807 43.3483 60.5807 45.4361C60.5807 47.524 62.2792 49.2224 64.367 49.2224C66.4548 49.2224 68.1533 47.5243 68.1533 45.4361ZM63.1049 45.4361C63.1049 44.7404 63.6706 44.174 64.367 44.174C65.0633 44.174 65.6291 44.7404 65.6291 45.4361C65.6291 46.1319 65.0633 46.6982 64.367 46.6982C63.6706 46.6982 63.1049 46.1322 63.1049 45.4361Z" fill="#282A32"/>
<path d="M43.8036 11.7293C43.567 11.4926 43.2464 11.3595 42.9113 11.3595H13.8831C11.7953 11.3595 10.0968 13.058 10.0968 15.1458V23.9805H8.83469C6.74686 23.9805 5.04839 25.679 5.04839 27.7668V29.0289H3.7863C1.69847 29.0289 0 30.7274 0 32.8152V74.4644C0 76.5523 1.69847 78.2507 3.7863 78.2507H34.0767C36.1645 78.2507 37.863 76.5523 37.863 74.4644V73.2023H39.125C41.2129 73.2023 42.9113 71.5039 42.9113 69.416V68.1539H50.4839C52.5718 68.1539 54.2702 66.4555 54.2702 64.3676V22.7184C54.2702 22.3836 54.1371 22.0627 53.9004 21.8261L43.8036 11.7293ZM44.1734 15.6686L49.9614 21.4566H44.1734V15.6686ZM35.3388 74.4644C35.3388 75.1602 34.773 75.7265 34.0767 75.7265H3.7863C3.09056 75.7265 2.5242 75.1602 2.5242 74.4644V32.8152C2.5242 32.1194 3.09056 31.5531 3.7863 31.5531H5.04839V69.416C5.04839 71.5039 6.74686 73.2023 8.83469 73.2023H35.3388V74.4644ZM40.3871 69.416C40.3871 70.1118 39.8214 70.6781 39.125 70.6781H8.83469C8.13896 70.6781 7.57259 70.1118 7.57259 69.416V27.7668C7.57259 27.071 8.13896 26.5047 8.83469 26.5047H10.0968V64.3676C10.0968 66.4555 11.7953 68.1539 13.8831 68.1539H40.3871V69.416ZM50.4839 65.6297H13.8831C13.1874 65.6297 12.621 65.0634 12.621 64.3676V15.1458C12.621 14.4501 13.1874 13.8837 13.8831 13.8837H41.6493V22.7184C41.6493 23.4154 42.2137 23.9805 42.9113 23.9805H51.746V64.3676C51.746 65.0637 51.1803 65.6297 50.4839 65.6297Z" fill="#282A32"/>
<path d="M60.5808 31.5531C60.5808 32.109 60.9443 32.6 61.4769 32.7609C61.5977 32.7978 61.7208 32.8152 61.8429 32.8152C62.2568 32.8152 62.655 32.6107 62.8929 32.2532L72.9897 17.108C73.2472 16.7209 73.2721 16.223 73.0525 15.8128C72.8329 15.4026 72.4054 15.1461 71.9397 15.1461H66.8913V1.26301C66.8913 0.707052 66.5278 0.216096 65.9952 0.0551781C65.4651 -0.108264 64.8871 0.100298 64.5791 0.562858L54.4823 15.708C54.2248 16.0952 54.1999 16.5931 54.4195 17.0033C54.6391 17.4134 55.0667 17.67 55.5324 17.67H60.5808V31.5531ZM57.8903 15.1458L64.3671 5.43109V16.4079C64.3671 17.1049 64.9315 17.67 65.6292 17.67H69.5817L63.105 27.3847V16.4079C63.105 15.7109 62.5405 15.1458 61.8429 15.1458H57.8903Z" fill="#282A32"/>
<path d="M32.8145 29.5331C26.133 29.5331 20.6978 34.9686 20.6978 41.6499C20.6978 48.3311 26.1333 53.7666 32.8145 53.7666C39.4958 53.7666 44.9313 48.3311 44.9313 41.6499C44.9313 34.9686 39.4961 29.5331 32.8145 29.5331ZM32.8145 51.2428C27.5251 51.2428 23.222 46.9393 23.222 41.6502C23.222 36.361 27.5254 32.0576 32.8145 32.0576C38.1046 32.0576 42.4071 36.361 42.4071 41.6502C42.4071 46.9393 38.1046 51.2428 32.8145 51.2428Z" fill="#282A32"/>
<path d="M34.7077 37.8636H32.0749L32.4447 37.4938C32.9376 37.0009 32.9376 36.202 32.4447 35.7092C31.9519 35.2163 31.153 35.2163 30.6601 35.7092L28.1359 38.2334C28.0264 38.3429 27.9488 38.4719 27.8873 38.6079C27.8687 38.6492 27.8567 38.6903 27.8428 38.7328C27.8094 38.8344 27.7895 38.937 27.7822 39.044C27.7794 39.0881 27.774 39.1298 27.7756 39.1736C27.7806 39.3077 27.804 39.4409 27.8529 39.5706C27.857 39.5816 27.857 39.5936 27.8614 39.6043C27.862 39.6059 27.8617 39.6072 27.8624 39.6087C27.921 39.7504 28.0094 39.8706 28.11 39.9789C28.1211 39.9908 28.1246 40.0063 28.1359 40.018L30.6601 42.5422C30.9065 42.7886 31.2296 42.912 31.5524 42.912C31.8752 42.912 32.1983 42.7886 32.4447 42.5422C32.9376 42.0493 32.9376 41.2504 32.4447 40.7576L32.0749 40.3878H34.7077C35.7517 40.3878 36.6008 41.2369 36.6008 42.2809C36.6008 43.325 35.7517 44.1741 34.7077 44.1741H27.7661C27.0691 44.1741 26.504 44.7392 26.504 45.4362C26.504 46.1332 27.0691 46.6983 27.7661 46.6983H34.7077C37.1432 46.6983 39.125 44.7165 39.125 42.2809C39.125 39.8454 37.1432 37.8636 34.7077 37.8636Z" fill="#282A32"/>
</svg>
