<svg width="71" height="60" viewBox="0 0 71 60" fill="none" xmlns="http://www.w3.org/2000/svg">
<path d="M52.9403 0H17.555C7.87509 0 0 7.87509 0 17.555V23.7508C0 24.3211 0.46235 24.7835 1.03265 24.7835H16.3429C16.1407 25.3527 15.7751 25.8602 15.2832 26.2292L11.1526 29.3271C9.34214 30.685 8.26116 32.8468 8.26116 35.1099V54.8368C8.26116 57.6838 10.5773 60 13.4244 60H57.0709C59.9179 60 62.2341 57.6838 62.2341 54.8368V35.1099C62.2341 32.8468 61.1531 30.685 59.3427 29.3271L55.2121 26.2292C54.7203 25.8602 54.3546 25.3527 54.1523 24.7835H69.4626C70.0329 24.7835 70.4953 24.3211 70.4953 23.7508V17.555C70.4953 7.87509 62.6202 0 52.9403 0ZM17.555 2.06529H52.9403C61.1343 2.06529 67.8615 8.46095 68.3947 16.5223H53.9729V15.4897C53.9729 12.9963 52.1961 10.91 49.8423 10.4301V7.22852C49.8423 5.52025 48.4527 4.13058 46.7444 4.13058C45.3981 4.13058 44.2504 4.99401 43.8241 6.19587H26.6712C26.2449 4.99401 25.0971 4.13058 23.7508 4.13058C22.0426 4.13058 20.6529 5.52025 20.6529 7.22852V10.4301C18.2992 10.91 16.5223 12.9962 16.5223 15.4897V16.5223H2.10054C2.6338 8.46095 9.361 2.06529 17.555 2.06529ZM26.8488 8.26116H43.6465V10.3265H26.8488V8.26116ZM2.06529 18.5876H16.5223V22.7182H2.06529V18.5876ZM58.1035 30.9794C59.3968 31.9492 60.1688 33.4934 60.1688 35.1099V44.5103C60.1688 46.2186 58.7791 47.6083 57.0709 47.6083H17.555C16.9847 47.6083 16.5223 48.0706 16.5223 48.6409C16.5223 49.2112 16.9847 49.6735 17.555 49.6735H57.0709C58.2324 49.6735 59.3052 49.2879 60.1688 48.6381V54.8368C60.1688 56.545 58.7791 57.9347 57.0709 57.9347H13.4244C11.7161 57.9347 10.3265 56.545 10.3265 54.8368V48.6381C11.19 49.2879 12.2629 49.6735 13.4244 49.6735C13.9947 49.6735 14.457 49.2112 14.457 48.6409C14.457 48.0706 13.9947 47.6083 13.4244 47.6083C11.7161 47.6083 10.3265 46.2186 10.3265 44.5103V35.1099C10.3265 33.4935 11.0985 31.9492 12.3917 30.9794L16.5223 27.8814C17.8156 26.9114 18.5876 25.3673 18.5876 23.7508V15.4897C18.5876 13.7814 19.9773 12.3917 21.6856 12.3917C22.2558 12.3917 22.7182 11.9294 22.7182 11.3591V7.22852C22.7182 6.65905 23.1814 6.19587 23.7508 6.19587C24.3203 6.19587 24.7835 6.65905 24.7835 7.22852V11.3591C24.7835 11.9294 25.2458 12.3917 25.8161 12.3917H44.6791C45.2494 12.3917 45.7118 11.9294 45.7118 11.3591V7.22852C45.7118 6.65905 46.1749 6.19587 46.7444 6.19587C47.3139 6.19587 47.7771 6.65905 47.7771 7.22852V11.3591C47.7771 11.9294 48.2394 12.3917 48.8097 12.3917C50.518 12.3917 51.9076 13.7814 51.9076 15.4897V23.7508C51.9076 25.3673 52.6796 26.9114 53.9729 27.8814L58.1035 30.9794ZM53.9729 22.7182V18.5876H68.43V22.7182H53.9729Z" fill="white"/>
<path d="M35.2476 14.457C26.7065 14.457 19.7579 21.4056 19.7579 29.9467C19.7579 38.4878 26.7065 45.4364 35.2476 45.4364C43.7887 45.4364 50.7373 38.4878 50.7373 29.9467C50.7373 21.4056 43.7887 14.457 35.2476 14.457ZM35.2476 43.3711C27.8453 43.3711 21.8232 37.349 21.8232 29.9467C21.8232 22.5444 27.8453 16.5223 35.2476 16.5223C42.6499 16.5223 48.672 22.5444 48.672 29.9467C48.672 37.349 42.6499 43.3711 35.2476 43.3711Z" fill="white"/>
<path d="M35.2477 22.7181C31.2618 22.7181 28.0192 25.9608 28.0192 29.9467C28.0192 33.9325 31.2618 37.1752 35.2477 37.1752C39.2336 37.1752 42.4762 33.9325 42.4762 29.9467C42.4762 25.9608 39.2336 22.7181 35.2477 22.7181ZM35.2477 35.1099C32.4006 35.1099 30.0845 32.7937 30.0845 29.9467C30.0845 27.0996 32.4006 24.7834 35.2477 24.7834C38.0948 24.7834 40.4109 27.0996 40.4109 29.9467C40.4109 32.7937 38.0948 35.1099 35.2477 35.1099Z" fill="white"/>
<path d="M35.2476 18.5876C28.9842 18.5876 23.8885 23.6833 23.8885 29.9467C23.8885 36.2102 28.9842 41.3058 35.2476 41.3058C41.5111 41.3058 46.6067 36.2102 46.6067 29.9467C46.6067 23.6833 41.5111 18.5876 35.2476 18.5876ZM35.2476 39.2405C30.123 39.2405 25.9538 35.0714 25.9538 29.9467C25.9538 24.8221 30.123 20.6529 35.2476 20.6529C40.3723 20.6529 44.5415 24.8221 44.5415 29.9467C44.5415 35.0714 40.3723 39.2405 35.2476 39.2405Z" fill="white"/>
</svg>
