<svg width="61" height="60" viewBox="0 0 61 60" fill="none" xmlns="http://www.w3.org/2000/svg">
<path d="M37.459 16.3832C37.4588 14.9082 37.0212 13.4664 36.2016 12.24C35.382 11.0137 34.2172 10.058 32.8544 9.49368C31.4916 8.92937 29.9921 8.78182 28.5455 9.0697C27.0989 9.35758 25.7701 10.068 24.7272 11.111C23.6843 12.154 22.9741 13.4829 22.6864 14.9296C22.3988 16.3762 22.5465 17.8757 23.111 19.2384C23.6755 20.6011 24.6314 21.7658 25.8578 22.5852C27.0842 23.4047 28.5261 23.842 30.0011 23.842C31.9785 23.8396 33.8742 23.053 35.2723 21.6547C36.6705 20.2563 37.4568 18.3605 37.459 16.3832ZM24.3097 16.3832C24.3098 15.2575 24.6438 14.1572 25.2693 13.2214C25.8948 12.2856 26.7838 11.5563 27.8238 11.1257C28.8638 10.695 30.0081 10.5825 31.1121 10.8022C32.216 11.0219 33.2301 11.564 34.0259 12.3601C34.8218 13.1561 35.3637 14.1702 35.5833 15.2742C35.8028 16.3782 35.69 17.5225 35.2592 18.5624C34.8284 19.6023 34.0989 20.4912 33.163 21.1165C32.2271 21.7418 31.1267 22.0756 30.0011 22.0756C28.492 22.0739 27.0452 21.4735 25.9782 20.4064C24.9112 19.3392 24.3111 17.8923 24.3097 16.3832Z" fill="white"/>
<path d="M59.9437 58.8019L52.7437 39.9262C52.6798 39.7591 52.5668 39.6153 52.4194 39.5138C52.2721 39.4124 52.0974 39.358 51.9185 39.3579H38.2917C38.375 39.2222 38.4578 39.0905 38.5411 38.9542C43.7843 30.2734 46.4229 22.6798 46.385 16.3872C46.3858 12.0418 44.6603 7.87405 41.5881 4.80085C38.516 1.72766 34.3488 0.000736431 30.0034 2.35479e-07C25.658 -0.00073596 21.4902 1.72477 18.417 4.79693C15.3438 7.86909 13.6169 12.0362 13.6162 16.3817C13.5783 22.6798 16.2169 30.2744 21.4601 38.9542C21.5434 39.092 21.6262 39.2237 21.7095 39.3579H8.08267C7.90377 39.358 7.7291 39.4124 7.58176 39.5138C7.43442 39.6153 7.32135 39.7591 7.25749 39.9262L0.0585139 58.8019C0.00721875 58.9356 -0.0107435 59.0798 0.00617924 59.222C0.0231019 59.3643 0.0744006 59.5002 0.155643 59.6182C0.236885 59.7361 0.345628 59.8326 0.472475 59.8991C0.599322 59.9656 0.740459 60.0002 0.883692 60H59.1185C59.2617 60.0002 59.4029 59.9656 59.5297 59.8991C59.6566 59.8326 59.7653 59.7361 59.8466 59.6182C59.9278 59.5002 59.9791 59.3643 59.996 59.222C60.013 59.0798 59.995 58.9356 59.9437 58.8019ZM15.3831 16.3832C15.3834 14.4635 15.7619 12.5627 16.4968 10.7893C17.2317 9.01589 18.3088 7.4046 19.6664 6.04743C21.024 4.69025 22.6357 3.61378 24.4094 2.87946C26.183 2.14514 28.084 1.76737 30.0036 1.7677C31.9233 1.76803 33.8241 2.14646 35.5975 2.88139C37.3709 3.61632 38.9822 4.69335 40.3394 6.051C41.6966 7.40864 42.773 9.0203 43.5074 10.794C44.2417 12.5676 44.6194 14.4686 44.6191 16.3882C44.6948 28.934 32.9657 44.4074 30.0011 48.1179C27.0365 44.4089 15.3069 28.9395 15.3831 16.3832ZM29.3283 50.0863C29.4113 50.1837 29.5144 50.262 29.6305 50.3157C29.7467 50.3694 29.8731 50.3972 30.0011 50.3972C30.1291 50.3972 30.2555 50.3694 30.3717 50.3157C30.4878 50.262 30.591 50.1837 30.6739 50.0863C33.0189 47.2296 35.1929 44.2367 37.1844 41.1234H51.3094L52.4399 44.0885L24.8376 53.9053L14.999 41.1219H22.8168C24.8086 44.2358 26.9829 47.2291 29.3283 50.0863ZM24.8068 55.7893H24.8118L41.2785 49.9349L47.6655 58.2336H17.9389L24.8068 55.7893ZM8.69184 41.1219H12.7698L23.0868 54.5276L12.6683 58.2331H2.16562L8.69184 41.1219ZM49.8967 58.2336L43.0283 49.3095L53.0718 45.7378L57.8376 58.2336H49.8967Z" fill="white"/>
</svg>
