<svg width="60" height="60" viewBox="0 0 60 60" fill="none" xmlns="http://www.w3.org/2000/svg">
<path d="M41.267 30.0787H33.8981C33.5225 28.6353 32.3927 27.5055 30.9493 27.1299V16.6657C30.9493 16.0951 30.487 15.6339 29.9175 15.6339C29.3479 15.6339 28.8857 16.0951 28.8857 16.6657V27.1299C27.1111 27.5911 25.7904 29.1924 25.7904 31.1105C25.7904 33.3866 27.6414 35.2376 29.9175 35.2376C31.8345 35.2376 33.4368 33.9169 33.8981 32.1422H41.267C41.8365 32.1422 42.2987 31.681 42.2987 31.1105C42.2987 30.5399 41.8375 30.0787 41.267 30.0787ZM29.9175 33.174C28.7794 33.174 27.8539 32.2485 27.8539 31.1105C27.8539 29.9724 28.7794 29.0469 29.9175 29.0469C31.0555 29.0469 31.981 29.9724 31.981 31.1105C31.981 32.2485 31.0555 33.174 29.9175 33.174Z" fill="white"/>
<path d="M51.7002 10.0737L55.9263 14.2998C56.1203 14.4938 56.3823 14.6021 56.6558 14.6021C56.9292 14.6021 57.1923 14.4938 57.3852 14.2998C60.6528 11.0332 60.6528 5.71652 57.3852 2.44994C54.1186 -0.816646 48.8019 -0.816646 45.5354 2.44994C45.3414 2.64391 45.233 2.90495 45.233 3.1794C45.233 3.45385 45.3414 3.71592 45.5354 3.90886L50.2413 8.61476L48.4883 10.3677C43.5564 5.94764 37.047 3.25265 29.9185 3.25265C22.79 3.25265 16.2806 5.94764 11.3487 10.3677L9.59468 8.61476L14.3006 3.90886C14.4946 3.71489 14.6029 3.45385 14.6029 3.1794C14.6029 2.90495 14.4946 2.64288 14.3006 2.44994C11.034 -0.816646 5.71729 -0.816646 2.45071 2.44994C-0.816904 5.71652 -0.816904 11.0332 2.45071 14.2998C2.64468 14.4938 2.90675 14.6021 3.18017 14.6021C3.45359 14.6021 3.71669 14.4938 3.90963 14.2998L8.13576 10.0737L9.86501 11.8029C5.03736 16.8142 2.05967 23.6198 2.05967 31.1104C2.05967 41.3229 7.58686 50.2642 15.8039 55.1146L12.6797 58.2388C12.2763 58.6422 12.2763 59.2943 12.6797 59.6977C12.8809 59.8989 13.145 60 13.4091 60C13.6733 60 13.9374 59.8989 14.1386 59.6977L17.6982 56.1381C21.3899 57.9478 25.5366 58.9682 29.9175 58.9682C34.2983 58.9682 38.445 57.9478 42.1367 56.1381L45.6963 59.6977C45.8975 59.8989 46.1616 60 46.4258 60C46.6899 60 46.954 59.8989 47.1552 59.6977C47.5587 59.2943 47.5587 58.6422 47.1552 58.2388L44.031 55.1146C52.248 50.2642 57.7752 41.3229 57.7752 31.1104C57.7752 23.6198 54.7976 16.8142 49.9699 11.8029L51.7002 10.0737ZM55.9253 3.90886C58.1395 6.12304 58.3623 9.58566 56.5949 12.0526L47.7825 3.23924C50.2474 1.47182 53.7111 1.69365 55.9253 3.90886ZM3.24002 12.0516C1.47259 9.58566 1.69546 6.12304 3.90963 3.90886C6.12381 1.69468 9.58746 1.47285 12.0524 3.23924L3.24002 12.0516ZM29.9175 56.9047C15.6945 56.9047 4.12321 45.3334 4.12321 31.1104C4.12321 16.8875 15.6945 5.31619 29.9175 5.31619C44.1404 5.31619 55.7117 16.8875 55.7117 31.1104C55.7117 45.3334 44.1414 56.9047 29.9175 56.9047Z" fill="white"/>
<path d="M50.4311 19.2007C48.3573 15.6421 45.3858 12.6716 41.8282 10.5978C41.8117 10.5864 41.8014 10.5689 41.7839 10.5586C41.7653 10.5483 41.7457 10.5483 41.7271 10.539C38.247 8.53321 34.2158 7.37866 29.9185 7.37866C25.6212 7.37866 21.5901 8.53218 18.1099 10.539C18.0913 10.5483 18.0707 10.5472 18.0532 10.5586C18.0356 10.5689 18.0263 10.5864 18.0088 10.5978C14.4502 12.6716 11.4798 15.6421 9.4059 19.2007C9.39455 19.2182 9.37701 19.2275 9.36669 19.2451C9.35637 19.2626 9.35637 19.2832 9.34812 19.3018C7.34236 22.783 6.18781 26.8131 6.18781 31.1104C6.18781 35.4077 7.34236 39.4389 9.34812 42.919C9.3574 42.9376 9.35637 42.9572 9.36669 42.9758C9.38113 43.0016 9.4028 43.0201 9.41931 43.0439C11.4932 46.5911 14.4585 49.5533 18.0088 51.623C18.0253 51.6344 18.0356 51.6519 18.0532 51.6622C18.08 51.6777 18.1089 51.6839 18.1357 51.6963C21.6107 53.6928 25.6315 54.8411 29.9185 54.8411C34.2055 54.8411 38.2263 53.6928 41.7013 51.6963C41.7282 51.6839 41.757 51.6777 41.7839 51.6622C41.8014 51.6519 41.8107 51.6344 41.8282 51.623C45.3786 49.5533 48.3439 46.5921 50.4177 43.0439C50.4342 43.0201 50.4559 43.0016 50.4703 42.9758C50.4807 42.9582 50.4807 42.9376 50.4889 42.919C52.4947 39.4378 53.6492 35.4077 53.6492 31.1104C53.6492 26.8131 52.4947 22.782 50.4889 19.3018C50.4796 19.2832 50.4807 19.2636 50.4703 19.2451C50.459 19.2275 50.4415 19.2172 50.4311 19.2007ZM41.6209 49.317L41.1287 48.4648C40.8429 47.9716 40.2125 47.8014 39.7193 48.0872C39.2261 48.3719 39.0569 49.0034 39.3417 49.4966L39.8359 50.3519C37.1502 51.7417 34.1405 52.5733 30.9503 52.725V51.7458C30.9503 51.1752 30.4881 50.714 29.9185 50.714C29.349 50.714 28.8867 51.1752 28.8867 51.7458V52.725C25.6965 52.5743 22.6868 51.7417 20.0011 50.3519L20.4954 49.4966C20.7801 49.0023 20.6109 48.3719 20.1177 48.0872C19.6215 47.8024 18.9931 47.9726 18.7083 48.4648L18.2162 49.317C15.611 47.6373 13.3927 45.418 11.7129 42.8138L12.5652 42.3216C13.0584 42.0369 13.2276 41.4054 12.9428 40.9122C12.657 40.419 12.0276 40.2467 11.5334 40.5346L10.6781 41.0288C9.28827 38.3431 8.45667 35.3324 8.305 32.1432H9.28415C9.85368 32.1432 10.3159 31.682 10.3159 31.1114C10.3159 30.5409 9.85368 30.0797 9.28415 30.0797H8.30293C8.4546 26.8894 9.28621 23.8787 10.676 21.1941L11.5313 21.6883C11.6944 21.7822 11.8718 21.8265 12.0462 21.8265C12.4032 21.8265 12.7499 21.6408 12.9407 21.3107C13.2255 20.8164 13.0563 20.186 12.5631 19.9013L11.7109 19.407C13.3906 16.8029 15.6099 14.5835 18.2141 12.9038L18.7063 13.756C18.8982 14.0862 19.2438 14.2719 19.6008 14.2719C19.7752 14.2719 19.9527 14.2276 20.1157 14.1337C20.6089 13.8489 20.7781 13.2175 20.4933 12.7243L19.9991 11.8689C22.6848 10.4791 25.6945 9.64753 28.8847 9.49586V10.475C28.8847 11.0456 29.3469 11.5068 29.9165 11.5068C30.486 11.5068 30.9482 11.0456 30.9482 10.475V9.49586C34.1385 9.64649 37.1481 10.4791 39.8338 11.8689L39.3396 12.7243C39.0548 13.2185 39.2241 13.8489 39.7172 14.1337C39.8803 14.2276 40.0577 14.2719 40.2321 14.2719C40.5891 14.2719 40.9358 14.0862 41.1266 13.756L41.6188 12.9038C44.224 14.5835 46.4423 16.8029 48.122 19.407L47.2698 19.8992C46.7766 20.184 46.6074 20.8154 46.8922 21.3086C47.0841 21.6388 47.4297 21.8245 47.7867 21.8245C47.9611 21.8245 48.1385 21.7801 48.3016 21.6862L49.1569 21.192C50.5467 23.8777 51.3783 26.8884 51.53 30.0776H50.5508C49.9813 30.0776 49.5191 30.5388 49.5191 31.1094C49.5191 31.6799 49.9813 32.1411 50.5508 32.1411H51.53C51.3783 35.3314 50.5467 38.3421 49.1569 41.0268L48.3016 40.5325C47.8063 40.2457 47.1769 40.418 46.8922 40.9102C46.6074 41.4044 46.7766 42.0348 47.2698 42.3196L48.122 42.8117C46.4444 45.418 44.2261 47.6363 41.6209 49.317Z" fill="white"/>
</svg>
