<?xml version="1.0" standalone="no"?>
<svg id="SvgjsSvg1001" width="600" height="600" xmlns="http://www.w3.org/2000/svg" version="1.1" xmlns:xlink="http://www.w3.org/1999/xlink" xmlns:svgjs="http://svgjs.com/svgjs" class="svg-paper" viewBox="0 0 600 600"><title id="SvgjsTitle1965">x=cos(max(y/sqrt(x*x + y*y),y)/max(x,y))|y=(cos(x)-min(sin(log(abs(sqrt(x*x + y*y)))),(log(abs(y))+y)))|dTest=0.0|sd=0.2|sm=0.2|ts=0.05 | generated with FlowLines</title><g id="SvgjsG1966"><polyline id="SvgjsPolyline1967" points="0,521.08 6.59,504.33 13.95,487.9 20.82,474.57 26.89,464.22 35.36,451.84 42.95,442.56 51.38,434.02 58.28,428.25 65.67,423.12 70.85,420.1 78.95,416.17 87.35,412.94 101.77,408.84 128.16,403.15 139.8,400.24 151.23,396.57 159.57,393.2 170.28,387.8 180.42,381.39 189.91,374.06 200.8,363.75 208.69,354.72 215.8,345.06 222.04,334.81 226.08,326.77 229.49,318.44 232.19,309.86 233.55,304.02 234.86,295.12 237.02,286.38 240.2,277.97 244.58,270.12 255.8,256.06 277.37,227.24 284.91,217.9 292.83,208.88 301.24,200.33 310.27,192.43 320.07,185.51 328.01,181.3 333.61,179.14 339.41,177.65 345.37,176.96 351.36,177.16 357.25,178.27 362.92,180.22 368.29,182.89 373.34,186.13 380.32,191.81 388.66,200.42 415.1,233.06 429.71,252.09 435.76,258.75 442.46,264.75 449.81,269.94 457.72,274.21 466.09,277.5 477.72,280.46 483.64,281.41 492.59,282.32 507.58,282.75 525.56,281.91 543.44,279.85 561.16,276.71 578.68,272.6 598.87,266.83" fill="none" stroke="#000000" stroke-width="1"/><polyline id="SvgjsPolyline1968" points="0.13,556.31 6.97,536.46 13.48,519.67 20.66,503.17 27.35,489.75 34.83,476.75 43.27,464.35 50.84,455.05 59.22,446.47 66.07,440.62 73.38,435.38 81.11,430.77 89.18,426.8 103.16,421.39 131.83,412.56 143.18,408.68 154.28,404.12 165.01,398.74 175.24,392.48 184.91,385.39 193.98,377.53 204.43,366.77 212.04,357.5 218.94,347.69 225.04,337.35 229,329.28 232.38,320.94 235.1,312.36 237.07,303.58 238.36,294.68 240.51,285.94 243.67,277.52 247.98,269.63 277.93,228.36 285.36,218.94 293.19,209.84 301.53,201.22 310.5,193.26 317.74,187.91 325.48,183.34 330.95,180.87 336.65,179 342.54,177.88 348.52,177.62 354.48,178.27 360.28,179.8 365.81,182.12 371.02,185.09 375.9,188.58 380.47,192.46 388.81,201.08 415.32,233.65 428.08,250.33 436.09,259.26 442.85,265.19 450.24,270.31 458.21,274.5 466.61,277.71 478.25,280.58 484.18,281.5 493.14,282.37 508.13,282.75 526.1,281.86 543.98,279.77 561.69,276.6 579.21,272.46 599.39,266.67" fill="none" stroke="#000000" stroke-width="1"/><polyline id="SvgjsPolyline1969" points="0.49,488.34 6.76,474.71 13.7,461.41 19.83,451.1 26.57,441.17 34.02,431.77 40.14,425.17 49.07,417.17 56.37,411.9 61.5,408.8 69.56,404.8 75.13,402.58 83.72,399.89 98.39,396.79 125.14,393.12 136.97,391.12 148.63,388.31 157.18,385.51 168.18,380.74 176.06,376.39 185.96,369.62 195.12,361.87 203.47,353.26 210.98,343.91 217.56,333.88 221.81,325.95 225.4,317.7 228.26,309.17 229.67,303.34 231.06,294.45 233.35,285.75 236.73,277.42 241.37,269.72 255.17,253.91 277.31,225.52 288.94,211.79 295.09,205.22 301.53,198.93 308.31,193.01 315.49,187.59 323.16,182.88 328.55,180.27 334.19,178.21 340.02,176.84 343,176.45 348.99,176.33 354.93,177.12 360.7,178.77 366.18,181.19 371.35,184.23 376.19,187.77 380.73,191.69 389.01,200.37 402.16,216.75" fill="none" stroke="#000000" stroke-width="1"/><polyline id="SvgjsPolyline1970" points="161.75,1.39 171.4,29.79 180.78,55.11 188.75,74.54 197.56,93.6 206.1,109.44 214.24,122.03 221.71,131.41 225.87,135.74 230.36,139.71 237.8,144.77 243.21,147.33 248.93,149.13 257.84,150.29 266.82,149.82 275.67,148.18 284.35,145.82 307.28,138.73 316.04,136.68 321.97,135.77 330.95,135.34 339.89,136.28 345.71,137.74 354.04,141.12 361.78,145.7 368.89,151.2 377.49,159.57 385.22,168.74 393.93,180.94 409.73,206.44 437.99,248.9 443.4,256.08 449.49,262.7 453.96,266.71 461.27,271.94 466.52,274.84 472.03,277.22 477.73,279.08 486.52,281.02 492.46,281.82 501.44,282.46" fill="none" stroke="#000000" stroke-width="1"/><polyline id="SvgjsPolyline1971" points="339.63,599.86 340.95,548.88 343.19,506.94 346.09,477.08 348.21,462.23 350.33,450.42 352.91,438.71 356.04,427.12 358.79,418.56 363.07,407.35 368.1,396.45 372.39,388.54 377.14,380.9 384.19,371.19 389.99,364.31 396.22,357.82 402.85,351.73 409.84,346.07 417.15,340.82 424.72,335.96 450.74,321.02 455.74,317.71 460.43,313.97 464.52,309.6 466.19,307.11 467.49,304.41 468.13,301.49 469.39,298.77 471.1,296.31 473.15,294.13 477.82,290.37 480.41,288.85 486,286.7 494.82,284.94 530.66,281.61 542.56,280.05 554.39,278.07 574.9,273.58 598.01,267.1" fill="none" stroke="#000000" stroke-width="1"/><polyline id="SvgjsPolyline1972" points="376.16,2.31 382.96,12.19 390.67,25.06 397.68,38.31 405.39,54.58 414.77,76.67 423.4,99.06 432.46,124.5 444.84,161.48 453.56,183.84 465.84,211.2 480.29,240.87 486.23,251.29 491.47,258.61 495.42,263.11 499.81,267.2 507.11,272.46 509.69,273.98 512.38,275.31 518.02,277.36 526.85,279.01 532.84,279.36 541.83,279.07 556.71,277.21 574.33,273.57 597.47,267.21" fill="none" stroke="#000000" stroke-width="1"/><polyline id="SvgjsPolyline1973" points="340.71,597.96 342.43,553 344.88,517.08 348.22,487.27 350.55,472.45 352.83,460.67 356.31,446.08 359.68,434.57 362.6,426.06 367.08,414.93 370.91,406.78 376.71,396.28 381.59,388.72 386.95,381.49 392.79,374.65 396.96,370.33 401.34,366.23 408.3,360.53 418.26,353.85 423.51,350.95 431.67,347.15 442.97,343.14 457.55,339.65 469.41,337.78 496.2,334.49 507.99,332.27 513.78,330.71 519.45,328.75 527.59,324.92 535.03,319.87 539.41,315.78 541.36,313.5 544.68,308.52 545.97,305.81 547.71,300.08 550.56,294.81 556.45,288.02 558.67,286.01 563.54,282.51 571.46,278.26 582.54,273.64 599.47,267.53" fill="none" stroke="#000000" stroke-width="1"/><polyline id="SvgjsPolyline1974" points="463.96,1.11 493.26,108.17 499.47,128.23 505.55,145.17 513.44,164.63 522.11,183.75 530.17,199.85 540.33,218.23 551.39,236.08 556.65,243.37 562.85,249.88 567.59,253.56 570.14,255.14 572.79,256.53 578.38,258.7 587.12,260.82 593.09,261.36 599.09,261.26" fill="none" stroke="#000000" stroke-width="1"/><polyline id="SvgjsPolyline1975" points="0.17,597.25 6.04,577.08 12.52,557.11 19.68,537.37 25.37,523.49 31.65,509.87 38.62,496.59 46.45,483.8 53.43,474.04 61.15,464.86 67.45,458.44 76.56,450.62 83.88,445.39 91.56,440.71 102.24,435.24 110.46,431.59 143.76,417.92 154.56,412.68 162.43,408.32 172.55,401.88 182.18,394.72 191.27,386.89 201.85,376.26 211.52,364.81 218.57,355.09 226.38,342.29 231.68,331.53 235.99,320.34 238.47,311.69 240.23,302.86 241.46,293.95 243.58,285.21 246.62,276.74 249.27,271.36 252.47,266.29 276.38,231.77 285.5,219.86 295.27,208.48 305.91,197.91 315.2,190.33 320.17,186.96 325.37,183.98 330.82,181.47 336.5,179.56 342.38,178.39 348.37,178.07 351.36,178.25 357.26,179.31 360.14,180.17 365.68,182.45 370.9,185.4 375.8,188.86" fill="none" stroke="#000000" stroke-width="1"/><polyline id="SvgjsPolyline1976" points="287.28,599.98 287.55,365.98 287.72,362.99 291.86,342.41 292.04,339.41 288.66,331.08 287.95,328.17 287.47,322.2 287.99,316.23 290.31,301.41 292.43,292.68 291.82,289.76 288.03,281.6 286.15,275.91 285.59,272.96 285.23,266.98 285.79,261.01 288.05,252.31 291.65,244.07 297.65,233.68 304.42,223.77 312.04,214.51 320.68,206.19 327.93,200.87 335.91,196.73 341.61,194.87 344.55,194.27 350.52,193.81 353.52,193.96 359.42,195 365.09,196.94 373.1,201.04 378.11,204.33 382.79,208.08 387.16,212.19 403.91,229.38 411.95,238.29 425.55,254.28 432.04,260.51 439.14,266.04 444.18,269.29 449.44,272.17 454.9,274.66 460.52,276.76 472.1,279.87 478.01,280.94 486.94,282.04" fill="none" stroke="#000000" stroke-width="1"/><polyline id="SvgjsPolyline1977" points="0.22,461.08 7.26,447.84 13.47,437.57 20.28,427.69 25.85,420.62 33.97,411.79 40.62,405.74 47.79,400.29 55.45,395.58 60.81,392.88 69.16,389.55 74.9,387.8 83.68,385.82 98.54,383.87 131.45,381.4 143.31,379.63 152.08,377.6 163.45,373.77 174.26,368.6 181.92,363.87 191.41,356.54 197.96,350.37 205.86,341.35 211.13,334.05 217.16,323.68 220.86,315.48 222.87,309.83 224.46,304.05 226.54,292.24 229.19,283.64 233.05,275.52 236.38,270.54 240.31,266.01 246.91,259.89 253.08,253.34 281.64,218.57 289.62,209.62 298.03,201.05 306.97,193.05 316.6,185.91 324.38,181.39 332.68,177.92 338.47,176.4 344.42,175.65 350.42,175.78 353.39,176.19 359.2,177.65 364.76,179.9 370,182.81 374.92,186.24 381.73,192.13 389.88,200.92 416.12,233.72 428.81,250.45 434.69,257.26 441.23,263.44 448.41,268.85 456.2,273.35 461.67,275.8 467.32,277.82 473.1,279.43 484.9,281.56 496.86,282.56 511.85,282.67 526.83,281.8 544.7,279.66 562.41,276.45 579.91,272.28" fill="none" stroke="#000000" stroke-width="1"/><polyline id="SvgjsPolyline1978" points="149.47,2.23 160.12,36.62 171.54,70.76 180.91,96.08 190.13,118.23 199.26,137.14 203.61,145.02 208.31,152.69 213.46,160.07 217.2,164.76 221.24,169.19 225.64,173.28 232.99,178.44 238.42,180.98 241.27,181.91 247.16,183.01 250.16,183.17 256.14,182.79 262.02,181.61 270.56,178.78 281.49,173.83 308.27,160.34 316.61,156.96 325.23,154.36 334.1,152.91 343.09,152.96 349,153.93 357.53,156.76 362.89,159.47 370.35,164.48 377.17,170.35 385.37,179.11 394.48,191.01 406.08,208.52 435.35,250.28 440.99,257.29 445.13,261.63 449.58,265.65 454.35,269.29 459.41,272.5 464.75,275.24 470.32,277.48 476.05,279.24 481.9,280.57 490.8,281.87" fill="none" stroke="#000000" stroke-width="1"/><polyline id="SvgjsPolyline1979" points="174.09,0.5 182.54,22.97 190.52,42.39 197.97,58.78 206.19,74.79 213.86,87.68 220.71,97.52 228.42,106.71 232.67,110.94 237.23,114.84 244.69,119.87 250.06,122.52 255.72,124.51 264.55,126.17 270.54,126.45 279.52,125.87 288.41,124.47 311.94,119.77 320.87,118.65 326.86,118.4 335.84,118.98 341.73,120.11 350.25,122.97 355.64,125.61 363.2,130.47 367.89,134.21 372.32,138.26 380.46,147.07 387.81,156.55 397.69,171.59 415.18,203.05 442,246.43 448.89,256.24 452.78,260.81 457,265.07 463.99,270.73 469.07,273.91 474.46,276.55 482.96,279.47 491.78,281.27 500.73,282.18 512.72,282.43 524.71,281.89" fill="none" stroke="#000000" stroke-width="1"/><polyline id="SvgjsPolyline1980" points="155.55,1.59 165.72,32.98 175.67,61.28 184.37,83.65 192.76,102.9 202.26,121.62 210.07,134.42 213.52,139.33 219.1,146.39 223.07,150.89 227.35,155.09 234.47,160.58 239.71,163.49 242.47,164.67 248.22,166.37 251.17,166.88 257.16,167.21 266.09,166.24 274.8,163.98 283.27,160.94 308.26,150.73 316.81,147.9 325.57,145.86 334.51,144.97 343.48,145.54 349.34,146.83 357.74,150.04 365.51,154.57 372.62,160.08 379.12,166.3 386.98,175.36 395.78,187.5 408.61,207.78 437.26,249.97 444.81,259.28 451.29,265.53 458.49,270.92 466.36,275.27 474.75,278.49" fill="none" stroke="#000000" stroke-width="1"/><polyline id="SvgjsPolyline1981" points="167.48,1.48 175.5,24.1 184.13,46.49 192.39,65.8 200.19,82.02 207.43,95.16 215.59,107.74 223.04,117.14 227.17,121.49 231.61,125.52 238.84,130.88 246.68,135.28 252.29,137.37 261.12,139.08 270.11,139.19 279.03,138.05 287.82,136.14 311.06,130.14 319.91,128.52 325.88,127.91 334.87,127.97 343.74,129.41 349.47,131.18 357.62,134.97 365.14,139.9 372.03,145.69 380.35,154.33 387.83,163.71 396.28,176.1 414.44,207.18 440.28,247.63 445.5,254.96 451.39,261.75 458.02,267.83 462.87,271.36 468.04,274.4 473.49,276.91 479.15,278.89 487.91,280.92 493.85,281.75 502.83,282.4" fill="none" stroke="#000000" stroke-width="1"/><polyline id="SvgjsPolyline1982" points="327.63,599.66 325.41,584.83 323.14,573.04 315.3,540.99 314.29,535.08 313.38,526.13 312.75,502.14 312.56,370.14 312.26,355.15 310.17,343.34 300.74,302.41 300.12,296.47 300.61,290.61 301.36,287.72 300.92,284.78 297.01,276.68 294.93,271.06 293.88,265.16 293.9,259.16 294.86,253.25 296.6,247.51 298.98,242 303.34,234.13 308.2,226.56 313.58,219.34 319.53,212.6 323.85,208.44 328.49,204.63 333.46,201.28 338.78,198.51 344.42,196.49 350.31,195.37 353.31,195.2 356.3,195.29 362.22,196.26" fill="none" stroke="#000000" stroke-width="1"/><polyline id="SvgjsPolyline1983" points="333.6,599.23 331.12,563.32 327.81,536.52 326.28,527.65 323.71,515.93 315.21,487.17 313.66,478.31 313.01,469.34" fill="none" stroke="#000000" stroke-width="1"/><polyline id="SvgjsPolyline1984" points="336.22,598.89 335.37,562.9 334.16,532.93 332.55,508.98 330.35,488.1 328.02,473.28 325.39,461.58 321.81,450.13 315.39,433.32 313.96,427.5 313.2,421.55 312.78,412.56 312.31,355.56 310.26,343.75 300.83,302.82 300.37,296.91 300.84,294.01 300.76,291.05 301.61,288.19 301.33,285.22 297.48,277.1 295.33,271.51 294.62,268.59 294.03,262.63 294.12,259.63 295.01,253.7 297.78,245.15 301.84,237.13 308.18,226.95 315.45,217.4 321.58,210.82 328.4,204.95 335.96,200.1" fill="none" stroke="#000000" stroke-width="1"/><polyline id="SvgjsPolyline1985" points="337.58,598.36 336.76,421.36 337.23,394.37 338.64,373.42 339.82,364.5 341.51,355.66 343.8,346.96 345.69,341.26 348.98,332.89 358.74,310.96 360.81,305.33 363.05,296.62 365.15,291.01 367.93,285.69 371.36,280.78 375.49,276.43 377.81,274.54 382.94,271.43 388.56,269.35 391.48,268.68 397.44,268.02 406.43,268.3 415.33,269.56 450.47,277.38 468.19,280.54 486.09,282.4 504.08,282.93 516.07,282.59 528.04,281.72 539.96,280.35 551.82,278.51 563.59,276.2 575.28,273.47 598.38,266.98" fill="none" stroke="#000000" stroke-width="1"/><polyline id="SvgjsPolyline1986" points="338.35,597.11 338.85,540.11 339.61,504.12 341.06,471.15 343.35,444.25 344.91,432.35 346.94,420.53 351.84,400.11 354.53,391.52 357.66,383.09 361.25,374.83 365.29,366.8 369.77,358.99 376.32,348.94 383.39,339.24 396.21,322.61 403.04,312.75 407.23,304.79 409.93,296.22 412.78,290.96 416.73,286.46 421.62,283 424.33,281.72 430.07,280.01 436.01,279.21 442.01,279.04 451,279.5 471.9,281.53 486.86,282.62 498.85,282.98 510.85,282.83" fill="none" stroke="#000000" stroke-width="1"/><polyline id="SvgjsPolyline1987" points="338.82,599.54 339.5,551.55 340.44,518.56 342.16,485.61 344.32,461.71 347.26,440.92 349.56,429.14 351.65,420.39 354.1,411.73 356.95,403.19 362.67,389.33 368.15,378.66 372.79,370.95 377.86,363.51 383.32,356.36 393.16,345.04 416.43,321.65 424.41,312.69 427.84,307.77 429.3,305.15 430.51,302.41 432.32,296.7 433.73,294.05 435.48,291.62 437.56,289.46 439.92,287.61 445.24,284.87 448.09,283.95 453.98,282.82 465.96,282.26 486.95,282.91" fill="none" stroke="#000000" stroke-width="1"/><polyline id="SvgjsPolyline1988" points="339.24,598.14 340.13,553.14 341.65,514.18 343.78,484.25 346.54,460.41 350.16,439.73 352.91,428.05 355.36,419.39 358.19,410.85 362.61,399.69 366.43,391.55 370.7,383.63 375.42,375.97 380.59,368.6 386.19,361.56 394.26,352.68 400.73,346.42 407.48,340.47 433.29,319.91 437.66,315.81 441.75,311.41 445.38,306.65 446.87,304.04 448.02,301.28 448.73,298.37 449.99,295.65 451.68,293.18 453.74,290.99 456.1,289.14 458.69,287.64 464.31,285.57 473.18,284.09 482.16,283.59 509.15,283.04 524.12,282.12" fill="none" stroke="#000000" stroke-width="1"/><polyline id="SvgjsPolyline1989" points="340.04,598.38 341.39,553.4 343.59,514.47 345.17,496.54 346.89,481.63 349.08,466.8 351.26,455 353.88,443.29 357.04,431.71 360.8,420.32 364.07,411.93 369.07,401.03 373.34,393.1 378.06,385.44 385.08,375.72 392.93,366.64 401.57,358.32 410.96,350.86 421,344.3 428.9,339.99 437.05,336.17 448.18,331.69 476.38,321.47 484.57,317.75 489.77,314.75 494.57,311.16 498.69,306.81 500.36,304.32 501.66,301.62 502.41,298.72 503.69,296.02 505.44,293.58 507.56,291.47 512.56,288.18 518.11,285.9 523.88,284.26 556.26,277.93 567.98,275.34 582.51,271.64 599.79,266.57" fill="none" stroke="#000000" stroke-width="1"/><polyline id="SvgjsPolyline1990" points="340.57,569.96 342,533.98 344.01,504.05 346.5,480.18 350.21,456.48 354.86,436 360.24,418.83 363.49,410.44 367.15,402.22 371.26,394.21 375.81,386.45 384.44,374.19 392.25,365.09 400.84,356.71 410.15,349.15 417.55,344.03 427.88,337.93 438.61,332.55 463.2,321.41 471.04,317 475.85,313.42 479.99,309.1 481.65,306.6 482.87,303.86 484.56,298.11 485.97,295.47 487.84,293.13 490.07,291.13 495.26,288.15 500.94,286.23 509.76,284.46 524.64,282.55" fill="none" stroke="#000000" stroke-width="1"/><polyline id="SvgjsPolyline1991" points="358.04,1.29 364.59,7.46 370.72,14.05 379.96,25.85 389.67,41 399.62,59.49 409.73,81.26 418.89,103.44 428.4,128.71 442.21,168.37 450,187.87 459.9,209.73 474.4,239.37 480.02,249.97 484.9,257.53 490.55,264.53 497.15,270.63 502.13,273.97 504.78,275.38 507.52,276.6 513.22,278.44 522.09,279.91 531.08,280.18 543.05,279.37 557.89,277.16" fill="none" stroke="#000000" stroke-width="1"/><polyline id="SvgjsPolyline1992" points="389.41,0.23 396.66,13.35 404.57,29.52 411.81,46 418.54,62.7 426.92,85.18 433.83,105.02 452.36,162.08 460.94,184.49 469.27,203.77 480.7,228.23 488.63,244.39 494.67,254.75 498.16,259.63 502.04,264.2 508.71,270.23 513.75,273.47 516.44,274.8 519.22,275.92 524.99,277.56 533.91,278.67 545.9,278.38 557.8,276.87 572.51,273.93" fill="none" stroke="#000000" stroke-width="1"/><polyline id="SvgjsPolyline1993" points="352.7,598.28 356.83,565.54 361.78,535.96 367.55,509.58 374.03,486.48 381.05,466.69 385.77,455.66 389.7,447.56 394.02,439.67 398.75,432.02 403.96,424.68 409.68,417.73 418.16,409.25 427.64,401.91 432.74,398.76 438.06,395.98 443.56,393.59 449.22,391.59 457.91,389.26 469.73,387.23 505.59,384.11 520.43,381.96 529.2,379.94 534.96,378.24 543.39,375.12 548.86,372.65 556.79,368.39 561.87,365.2 569.17,359.95 576.08,354.18 582.58,347.96 588.67,341.33 594.32,334.33 599.51,326.98" fill="none" stroke="#000000" stroke-width="1"/><polyline id="SvgjsPolyline1994" points="345.65,598.73 348.62,562.85 352.62,530.1 354.99,515.29 357.79,500.55 361.06,485.91 364.04,474.29 367.44,462.78 371.31,451.43 375.74,440.27 379.46,432.08 385.02,421.45 389.69,413.76 394.84,406.37 400.49,399.37 406.67,392.84 411.1,388.79 420.68,381.58 425.82,378.49 431.17,375.77 436.7,373.44 442.38,371.5 454.05,368.77 465.96,367.32 477.95,366.77 504.94,366.35 519.88,365.08 528.74,363.51 537.44,361.2 543.1,359.22 551.32,355.56 559.15,351.14 566.54,346 573.43,340.22 581.79,331.62 589.11,322.12 593.8,314.44 597.59,306.29 599.35,300.56" fill="none" stroke="#000000" stroke-width="1"/><polyline id="SvgjsPolyline1995" points="342.47,598.47 344.84,556.53 347.85,523.67 349.71,508.79 351.98,493.96 356.69,470.43 359.65,458.81 363.1,447.31 367.11,436 370.52,427.68 375.67,416.84 380.03,408.97 384.84,401.37 390.15,394.1 395.96,387.23 400.13,382.91 406.82,376.9 413.98,371.45 424.14,365.08 432.26,361.21 437.88,359.09 449.45,355.95 455.35,354.88 464.29,353.82 476.27,353.17 506.26,352.6 521.18,351.12 530,349.35 535.77,347.71 544.19,344.53 549.58,341.9 554.77,338.89 562.09,333.66 568.78,327.65 574.75,320.92 579.87,313.53 582.7,308.24 584.91,302.67 586.42,296.86 588.81,291.37 591.96,286.27 597.82,279.45" fill="none" stroke="#000000" stroke-width="1"/><polyline id="SvgjsPolyline1996" points="340.28,599.68 341.89,551.7 344.12,515.77 347.21,485.94 349.4,471.1 351.56,459.29 354.16,447.58 357.26,435.99 360.95,424.57 365.3,413.39 370.38,402.52 374.71,394.63 379.49,387.01 384.75,379.7 390.47,372.76 394.55,368.37 403.33,360.19 412.88,352.93 423.12,346.68 433.93,341.49 445.17,337.3 456.7,333.95 488.78,326.25 497.34,323.47 505.59,319.89 513.38,315.41 518.03,311.62 520.11,309.46 523.57,304.57 526.79,296.2 528.38,293.67 530.32,291.38 534.96,287.59 540.22,284.72 548.62,281.48 589.01,270" fill="none" stroke="#000000" stroke-width="1"/><polyline id="SvgjsPolyline1997" points="341.19,599.45 343.15,554.49 345.88,518.6 349.53,488.82 353.82,465.21 356.58,453.54 360.73,439.13 364.71,427.8 368.12,419.48 373.29,408.65 377.68,400.79 382.52,393.21 387.86,385.96 391.68,381.34 397.85,374.79 402.23,370.69 409.22,365.03 416.68,359.99 421.89,357.03 430.03,353.19 435.64,351.06 447.17,347.77 458.98,345.68 470.92,344.5 500.87,342.78 515.73,340.79 527.34,337.78 535.74,334.55 541.16,331.99 546.35,328.98 553.57,323.62 557.92,319.49 561.83,314.94 566.67,307.37 568.96,301.83 570.6,296.07 571.87,293.35 573.37,290.76 577,285.99 581.27,281.78 586.01,278.11 591.06,274.87 598.99,270.61" fill="none" stroke="#000000" stroke-width="1"/><polyline id="SvgjsPolyline1998" points="451.56,1.51 464.08,44.73 484.76,119.94 491.94,142.84 500.3,165.33 509.65,187.44 521.22,211.83 532.42,233.05 540.03,245.97 545.5,253.12 551.99,259.33 556.96,262.69 559.62,264.07 565.24,266.15 568.16,266.85 577.1,267.74 586.08,267.24 597.9,265.22" fill="none" stroke="#000000" stroke-width="1"/><polyline id="SvgjsPolyline1999" points="476.32,0.73 502.3,96.26 507.39,113.52 512.21,127.73 517.5,141.76 523.26,155.61 529.47,169.27 538.94,188.01 549.36,206.24 559.15,221.34 569.88,235.79 575.71,242.64 582.46,248.57 584.96,250.24 590.29,252.98 593.1,254.03 598.91,255.5" fill="none" stroke="#000000" stroke-width="1"/><polyline id="SvgjsPolyline2000" points="12.54,597.55 18.65,577.46 24.44,560.42 30.85,543.6 38.02,527.09 44.69,513.66 52.15,500.65 60.53,488.21 67.99,478.81 74.06,472.17 80.55,465.93 87.43,460.14 97.16,453.13 112.63,443.93 139.31,430.22 152.45,422.99 162.65,416.67 172.48,409.79 184.15,400.37 195.08,390.1 205.23,379.06 214.57,367.32 221.4,357.46 227.59,347.18 231.74,339.2 236.49,328.18 239.37,319.66 241.62,310.94 242.78,305.06 244.43,293.18 246.42,284.4 249.31,275.88 251.85,270.45 261.36,255.17 274.78,235.28 283.68,223.2 293.21,211.63 303.58,200.79 310.29,194.8 315.01,191.09 319.94,187.68 325.12,184.65 330.54,182.08 336.21,180.12 342.07,178.88 345.05,178.57 351.05,178.64 354.02,179.02 356.96,179.63 362.66,181.48 368.07,184.06 373.15,187.25" fill="none" stroke="#000000" stroke-width="1"/><polyline id="SvgjsPolyline2001" points="275.28,599.98 272.09,579.23 269.64,558.37 267.3,531.47 265.66,504.52 264.36,471.55 263.72,441.56 263.58,405.56 263.95,381.56 264.76,360.58 265.87,345.62 267.41,336.76 273,313.42 275.02,301.59 275.14,298.61 272.32,283.88 271.65,277.92 271.61,271.92 272.27,265.96 273.57,260.11 276.55,251.62 280.53,243.56 285.11,235.81 293.43,223.33 302.73,211.57 308.86,204.98 313.21,200.85 322.61,193.41 327.71,190.25 333.09,187.59 338.73,185.57 341.64,184.85 347.59,184.05 350.58,184.01 353.58,184.2 359.47,185.31 365.12,187.3 373.02,191.59 377.87,195.13 384.56,201.14 390.66,207.76 410.21,230.51 429.02,253.87 437.56,262.29 444.71,267.75 452.43,272.36 460.64,276.03 466.32,277.96 472.12,279.5" fill="none" stroke="#000000" stroke-width="1"/><polyline id="SvgjsPolyline2002" points="299.28,599.98 298.89,588.13 299.11,576.28 298.89,567.37 299.73,561.51 299.36,555.6 300.37,540.84 300.86,537.94 301.08,526.13 301.51,520.27 301.13,517.33 301.8,511.42 301.66,508.48 301.01,505.57 300.41,499.66 300.55,496.72 301.16,493.8 301.96,479.22 302.58,473.38 303.21,470.48 302.29,464.67 302.64,458.86 302.34,455.93 302.63,453.07 302.37,450.18 302.53,447.21 301.88,444.31 302.65,441.48 302.44,426.98 302.68,424.03 301.93,421.26 302.52,418.36 302.64,415.5 301.98,412.6 301.71,406.81 300.79,401.12 301.34,398.26 300.59,395.45 301.53,392.65 301.53,381.06 303.38,369.72 302.45,366.96 302.59,361.31 303.16,358.42 302.28,352.76 302.69,349.89 302.57,347 303.43,341.3 302.71,329.85 303.01,326.98 302.34,324.15 302.44,321.25 301.78,318.38 302.67,312.54 302.32,309.58 300.42,300.78 300.56,297.79 299.8,291.96 300.7,289.1 300.86,286.13 299.93,283.29 297.21,277.94 294.93,272.4 294.15,269.5 293.41,263.55 293.71,257.57 294.2,254.61 295.78,248.82 298.02,243.26 302.28,235.34 308.76,225.24 316.17,215.81 320.27,211.43 324.67,207.35 331.86,201.95 339.82,197.78 342.63,196.74 348.46,195.35 354.44,194.95 357.43,195.15 363.31,196.32 368.93,198.41 374.21,201.25 379.14,204.66 383.75,208.51 396.45,221.25 406.75,232.16 426.33,254.89 430.62,259.08 437.56,264.79 442.51,268.18 447.7,271.2 453.09,273.83 458.66,276.07 470.17,279.43 481.98,281.49" fill="none" stroke="#000000" stroke-width="1"/><polyline id="SvgjsPolyline2003" points="287.28,598.89 287.28,376.89 286.87,373.92 286.03,371.04 280.84,360.23 278.52,354.7 276.12,346.04 275.5,340.07 275.67,334.08 276.43,328.13 280.69,307.57 281.57,301.63 281.68,298.65 277.34,284.3 275.97,278.46 275.31,272.5 275.5,266.51 276.44,260.59 278.03,254.81 280.18,249.21 284.25,241.19 292.11,228.41 300.95,216.3 306.8,209.46 310.95,205.14 319.95,197.21 324.84,193.73 330.01,190.69 338.3,187.21 344.13,185.82 347.11,185.46 353.1,185.45 356.08,185.82 361.9,187.25 364.71,188.28 370.1,190.91 375.16,194.13 382.13,199.81 388.46,206.21 406.23,226.53 429.05,254.37 433.22,258.68 437.67,262.7 444.87,268.09 452.65,272.62 460.89,276.22 469.48,278.9" fill="none" stroke="#000000" stroke-width="1"/><polyline id="SvgjsPolyline2004" points="337.43,599.68 336.88,524.68 336.06,473.69 334.77,434.71 333.06,407.77 330.7,386.9 329.16,378.04 327.12,369.27 324.36,360.71 314.4,335.61 312.47,329.93 310.97,324.13 310.56,318.16 310.92,315.18 313.7,303.51 314.66,297.59 314.44,294.61 313.48,291.77 307.14,278.18 305.32,272.47 304.78,269.52 304.52,266.53 304.78,260.55 305.96,254.67 307.93,249.01 312.03,241 318.61,230.97 322.33,226.27 326.38,221.84 333.13,215.9 340.79,211.2 346.38,209.05 349.3,208.34 355.26,207.75 364.19,208.71 369.96,210.34 375.4,212.86 380.47,216.07 385.22,219.73 394.41,227.45 401.03,233.54 409.48,242.06 419.61,253.12 423.94,257.28 428.52,261.14 435.85,266.37 443.65,270.84 451.86,274.52 460.38,277.43 472.05,280.2" fill="none" stroke="#000000" stroke-width="1"/><polyline id="SvgjsPolyline2005" points="0.02,436.46 6.2,426.17 12.95,416.25 20.36,406.81 26.41,400.15 32.93,393.95 39.94,388.31 47.44,383.34 55.4,379.15 63.75,375.82 69.5,374.08 78.28,372.16 84.22,371.29 96.18,370.32 132.16,369.26 141.11,368.34 149.97,366.78 161.5,363.49 169.81,360.04 177.72,355.75 185.14,350.67 192.02,344.86 198.3,338.42 203.93,331.41 210.33,321.27 214.19,313.14 216.25,307.51 217.77,301.71 219.32,292.85 222.04,284.28 226.09,276.25 229.6,271.39 233.73,267.05 245.49,257.76 251.95,251.49 259.95,242.55 283.25,215.11 291.43,206.33 300.03,197.96 309.2,190.22 319.08,183.43 327.06,179.28 335.54,176.31 341.44,175.2 347.42,174.93 350.42,175.12 356.32,176.18 364.74,179.31 369.98,182.24 374.89,185.68 381.68,191.57 389.83,200.37 415.99,233.23 428.65,249.98 434.49,256.83 440.97,263.06 445.66,266.81 453.21,271.69 458.56,274.41 466.94,277.66 475.64,279.98 484.51,281.49 496.46,282.53 511.45,282.68 523.44,282.07 538.36,280.55 553.18,278.26" fill="none" stroke="#000000" stroke-width="1"/><polyline id="SvgjsPolyline2006" points="137.16,2.8 151.47,51.75 163.17,88.95 173.98,120.13 183.86,145.26 188.69,156.24 193.91,167.04 198.15,174.98 202.76,182.71 207.83,190.15 211.54,194.86 217.76,201.36 222.42,205.12 227.57,208.19 230.33,209.37 236.12,210.89 242.11,211.17 245.09,210.86 250.92,209.49 259.24,206.07 267.09,201.67 274.62,196.74 301.68,177.87 309.38,173.21 317.38,169.09 325.75,165.78 334.48,163.64 343.44,163.05 349.41,163.65 352.35,164.26 360.83,167.23 368.66,171.64 375.8,177.11 382.31,183.32 392,194.76 402.45,209.42 434.47,252.89 438.38,257.44 442.6,261.71 447.11,265.66 451.93,269.23 459.68,273.79 465.15,276.25 470.81,278.24 479.54,280.42 488.44,281.77 497.41,282.49 509.4,282.68 521.39,282.2" fill="none" stroke="#000000" stroke-width="1"/><polyline id="SvgjsPolyline2007" points="142.32,1.05 153.49,38.42 165.41,75.55 175.42,103.83 185.46,128.89 194.33,147.92 203.13,163.62 208.15,171.09 211.81,175.84 215.78,180.33 222.25,186.59 229.56,191.81 235,194.33 237.86,195.22 243.78,196.17 246.78,196.22 252.73,195.56 261.37,193.08 269.6,189.43 277.51,185.14 305.93,168.38 314,164.41 322.38,161.13 331.09,158.88 340.03,158.03 346.02,158.39 351.9,159.54 354.77,160.41 363,164.03 370.55,168.91 377.43,174.7 383.73,181.13 393.14,192.81 403.31,207.65 433.01,249.11 436.66,253.87 442.69,260.55 447.09,264.62 451.8,268.34 459.42,273.12 467.61,276.84 476.2,279.5" fill="none" stroke="#000000" stroke-width="1"/><polyline id="SvgjsPolyline2008" points="187.41,2 195.85,21.23 202.42,34.71 211.09,50.48 217.52,60.61 224.62,70.28 232.59,79.25 239.25,85.29 246.59,90.48 254.61,94.56 260.26,96.55 266.1,97.91 272.05,98.69 278.04,98.96 287.04,98.62 307.92,96.45 316.9,95.84 325.89,95.94 334.81,97.09 343.48,99.48 349.02,101.78 356.86,106.19 364.08,111.56 370.71,117.64 378.73,126.56 385.98,136.12 392.61,146.11 403.1,164.3 417.77,193.86 426.39,209.66 449.18,248.46 454.28,255.88 458.05,260.54 464.36,266.95 469.02,270.72 474.05,273.99 482.19,277.81 487.91,279.61 496.74,281.33 505.7,282.12 517.7,282.17" fill="none" stroke="#000000" stroke-width="1"/><polyline id="SvgjsPolyline2009" points="179.51,1.22 186.19,17.94 193.37,34.45 199.84,47.98 206.91,61.2 213.13,71.46 220.01,81.29 227.75,90.46 234.25,96.67 241.38,102.16 249.07,106.82 257.41,110.17 263.24,111.59 272.18,112.53 281.18,112.32 290.12,111.33 313.87,107.91 322.85,107.38 328.85,107.54 337.76,108.77 343.55,110.32 351.86,113.75 359.6,118.34 366.71,123.84 375.29,132.23 382.99,141.42 389.99,151.17 394.86,158.74 400.95,169.07 416.25,198.31 428.32,219.05 447.04,249.8 452.31,257.09 456.22,261.64 462.72,267.86 467.5,271.48 472.63,274.59 480.87,278.19 486.62,279.87 495.47,281.48 504.44,282.23 513.44,282.35" fill="none" stroke="#000000" stroke-width="1"/><polyline id="SvgjsPolyline2010" points="315.34,598.32 313.59,583.43 312.85,562.45 312.67,418.45" fill="none" stroke="#000000" stroke-width="1"/><polyline id="SvgjsPolyline2011" points="337.81,598.96 338.1,481.96 338.7,451.97 339.82,427.99 341.79,407.09 344.18,392.28 347.77,377.72 352.73,363.57 356.25,355.29 360.22,347.22 376.65,318.6 380.78,310.6 383.1,305.07 385.53,296.42 387.94,290.93 389.47,288.35 393.17,283.63 397.69,279.71 400.23,278.11 405.73,275.74 411.58,274.42 417.55,273.94 423.55,274.08 432.5,275.02 462.1,279.87" fill="none" stroke="#000000" stroke-width="1"/><polyline id="SvgjsPolyline2012" points="336.94,517.31 336.33,472.31 335.4,433.33 334.08,400.35 331.72,358.42 331.63,349.42 333.33,337.55 335.79,328.9 344.16,306.41 346.32,297.68 348.16,291.97 351.95,283.82 355.15,278.75 358.95,274.11 361.08,272 365.82,268.34 368.42,266.84 371.15,265.59 376.88,263.85 382.82,263.05 388.82,263.01 397.76,263.97 406.59,265.71 444.29,275.69 456,278.32 464.85,279.94 476.74,281.56 488.7,282.55 500.69,282.92 512.69,282.74" fill="none" stroke="#000000" stroke-width="1"/><polyline id="SvgjsPolyline2013" points="325.86,0.2 334.53,2.58 342.81,6.09 353.07,12.3 360.22,17.77 366.76,23.94 374.66,32.97 381.77,42.63 388.24,52.74 394.2,63.15 399.75,73.79 406.22,87.32 412.28,101.04 424.52,131.69 439.84,173.99 449.21,196.09 459.5,217.77 472.95,244.58 477.42,252.39 482.53,259.79 488.47,266.55 492.96,270.53 495.37,272.31 500.53,275.37 506.05,277.69 514.79,279.8 523.75,280.58 532.75,280.43 544.69,279.31" fill="none" stroke="#000000" stroke-width="1"/><polyline id="SvgjsPolyline2014" points="404.38,2.32 410.48,16.02 416.19,29.89 427.75,60.8 440.18,97.76 457.94,155.07 465.08,174.82 473.05,194.25 482.86,216.15 495.86,243.18 501.83,253.59 505.28,258.49 509.13,263.1 515.76,269.16 518.21,270.89 523.48,273.75 526.26,274.87 532.03,276.48 540.97,277.5 546.96,277.47 552.95,277.03 564.82,275.31 579.47,272.12" fill="none" stroke="#000000" stroke-width="1"/><polyline id="SvgjsPolyline2015" points="364.63,599.58 369.32,572.99 375.02,546.6 381.16,523.4 387.59,503.41 395.3,483.88 403.2,467.71 407.69,459.92 412.61,452.38 416.14,447.53 421.86,440.58 430.32,432.08 437.3,426.41 444.8,421.44 455.49,415.99 463.89,412.77 472.5,410.17 484.18,407.4 507.68,402.55 522.19,398.77 536.31,393.71 544.49,389.96 549.79,387.15 562.45,379.13 569.62,373.69 576.46,367.84 587.13,357.3 593.09,350.56 598.73,343.55" fill="none" stroke="#000000" stroke-width="1"/><polyline id="SvgjsPolyline2016" points="357.37,597.43 361.9,567.78 367.69,538.35 374.32,512.18 380.68,492.17 384.9,480.94 388.4,472.64 393.57,461.82 397.88,453.92 402.61,446.26 407.8,438.91 417.49,427.46 426.19,419.21 430.91,415.51 435.88,412.14 443.73,407.76 454.82,403.2 463.46,400.67 472.25,398.77 504.9,394 519.63,391.19 525.45,389.71 534.03,387 542.39,383.69 547.82,381.13 553.11,378.3 560.78,373.59 568.09,368.35 575.05,362.64 581.64,356.52 587.88,350.03 593.74,343.2 599.22,336.06" fill="none" stroke="#000000" stroke-width="1"/><polyline id="SvgjsPolyline2017" points="439.15,2.09 453.26,47.97 476.11,128.8 483.4,151.67 491.85,174.13 501.23,196.22 512.71,220.65 525.14,244.62 528.32,249.7 531.86,254.54 537.99,261.12 542.7,264.83 545.24,266.42 550.68,268.96 553.53,269.88 556.44,270.59 562.39,271.38 571.38,271.32 583.26,269.71 597.87,266.32" fill="none" stroke="#000000" stroke-width="1"/><polyline id="SvgjsPolyline2018" points="488.69,0.44 506.9,67 515.97,98.72 519.74,110.11 524.93,124.19 529.45,135.3 535.57,149 542.21,162.45 549.4,175.61 557.18,188.43 565.64,200.82 572.95,210.33 580.81,219.39 589.31,227.86 598.51,235.56" fill="none" stroke="#000000" stroke-width="1"/><polyline id="SvgjsPolyline2019" points="24.9,598.03 31.36,578.06 36.46,563.95 43.2,547.26 49.44,533.62 56.37,520.32 64.09,507.46 70.93,497.6 78.4,488.22 84.45,481.55 90.86,475.24 97.62,469.3 104.68,463.72 119.47,453.46 154.89,430.9 167.05,422.12 176.4,414.6 187.54,404.56 198.02,393.83 207.82,382.48 216.9,370.54 223.59,360.58 229.68,350.25 235.07,339.52 238.54,331.22 241.45,322.71 244.43,311.09 246.04,302.23 247.13,293.3 248.9,284.48 251.52,275.88 255.29,267.71 262.86,254.77 271.02,242.18 279.56,229.85 288.67,217.93 296.49,208.84 304.89,200.27 311.65,194.33 318.87,188.97 326.63,184.41 332.11,181.97 337.82,180.16 343.73,179.13 349.72,178.96 355.66,179.73 361.43,181.38 366.91,183.8 372.07,186.86 376.91,190.41 381.44,194.34 385.69,198.57 389.69,203.04 412.56,230.84 429.15,252.15 435.22,258.78 441.95,264.75 446.79,268.3 451.89,271.45 457.23,274.18 465.61,277.46 471.37,279.13 480.18,280.94 495.1,282.49" fill="none" stroke="#000000" stroke-width="1"/><polyline id="SvgjsPolyline2020" points="262.94,599.01 262.51,473.02 262.81,425.02 263.38,392.02 264.52,362.04 265.97,344.11 267.66,335.27 273.23,311.93 275.09,300.08 271.98,282.37 271.47,276.39 271.62,270.4 273.12,261.53 274.86,255.79 277.1,250.23 279.76,244.85 284.28,237.07 292.52,224.54 301.71,212.7 309.89,203.92 318.93,196.03 326.37,190.98 334.43,187 340.14,185.16 343.07,184.54 349.04,183.97 352.04,184.04 357.97,184.91 360.86,185.69 366.45,187.87 371.71,190.74 376.65,194.15 383.45,200.03 389.64,206.56 409.21,229.3 428,252.69 434.18,259.22 441.01,265.07 445.9,268.54 451.05,271.62 456.43,274.28 461.99,276.53 473.52,279.81 485.36,281.74" fill="none" stroke="#000000" stroke-width="1"/><polyline id="SvgjsPolyline2021" points="131.08,597.61 141.58,572.73 155.63,542.87 172.16,510.9 205.29,450.37 220.72,421.2 233.89,394.25 243.5,372.26 253.04,347 257.41,332.66 261.2,318.14 263.09,309.34 264.46,300.45 264.28,282.46 265.12,273.5 267.18,264.75 269.1,259.07 271.43,253.54 277.1,242.97 286.84,227.84 295.84,215.84 305.82,204.66 314.67,196.55 321.89,191.19 329.7,186.73 335.24,184.43 338.1,183.53 343.97,182.33 349.96,182.03 355.92,182.67 358.84,183.34 364.5,185.31 369.86,188.01 374.88,191.29 379.58,195.02 383.98,199.1 390.09,205.7 409.46,228.61 426.23,249.77 432.12,256.56 438.66,262.74 443.37,266.45 448.36,269.79 453.59,272.73" fill="none" stroke="#000000" stroke-width="1"/><polyline id="SvgjsPolyline2022" points="337.44,597.78 336.34,483.79 335.35,444.8 334.12,417.83 332.55,396.89 330.41,379.02 328.28,367.21 323.09,346.87 322.19,337.93 322.62,331.95 324.52,323.16 329.96,306 332.02,297.25 333.75,291.51 337,283.11 339.57,277.69 342.61,272.52 346.29,267.8 353.04,261.85 358.12,258.68 363.66,256.39 369.53,255.19 372.52,255.01 378.49,255.47 387.24,257.58 401.59,261.93 430.1,271.3 444.51,275.45" fill="none" stroke="#000000" stroke-width="1"/><polyline id="SvgjsPolyline2023" points="337.43,599.09 336.85,521.1 336.13,476.1 334.92,437.12 333.1,407.18 330.79,386.31 328.05,371.57 325.64,362.9 317.55,340.31 316.02,334.51 315.16,328.58 315.12,325.58 315.9,319.63 319.83,305.16 322.44,293.45 323.36,287.53 323.63,281.54 322.6,269.59 322.99,263.61 324.26,257.75 325.21,254.91 327.7,249.45 332.53,241.87 336.22,237.14 342.55,230.76 347.37,227.19 352.68,224.41 358.42,222.7 364.39,222.25 367.38,222.53 370.32,223.11 375.97,225.1 381.34,227.77 389,232.5 393.86,236.01 400.85,241.68 413.97,254 420.93,259.69 430.95,266.29 441.65,271.71 452.87,275.94 458.63,277.63 467.4,279.66 482.23,281.85 500.2,282.86" fill="none" stroke="#000000" stroke-width="1"/><polyline id="SvgjsPolyline2024" points="1.38,411.79 8.24,401.94 13.8,394.86 19.75,388.12 26.13,381.77 32.96,375.92 40.26,370.65 48,366.07 56.15,362.26 67.53,358.46 73.37,357.09 82.25,355.66 97.2,354.55 130.19,353.92 139.16,353.15 148.04,351.74 156.76,349.5 165.18,346.34 173.17,342.2 178.18,338.91 182.91,335.23 189.4,329 195.06,322.01 198.32,316.97 201.12,311.67 203.39,306.12 204.29,303.25 206.76,291.52 208.78,285.88 211.5,280.54 213.15,278.03 216.98,273.42 219.14,271.34 223.86,267.64 228.94,264.46 239.55,258.85 246.74,253.45 255.35,245.1 283.19,213.66 295.76,200.78 302.42,194.73 309.42,189.07 316.81,183.94 322,180.93 330.2,177.23 338.87,174.88 344.84,174.27 347.83,174.29 353.79,175 356.71,175.69 365.09,178.92 372.78,183.59 377.5,187.28 381.93,191.32 390.04,200.16" fill="none" stroke="#000000" stroke-width="1"/><polyline id="SvgjsPolyline2025" points="124.02,0.3 141,60.97 152.92,101.24 164.9,138.36 175.15,166.55 180.82,180.44 185.72,191.39 191.06,202.13 195.45,209.99 200.29,217.58 205.71,224.76 209.76,229.18 214.25,233.15 219.27,236.43 221.98,237.71 227.75,239.3 233.73,239.41 236.69,238.93 242.39,237.07 250.29,232.79 257.57,227.5 266.69,219.7 286.5,201.36 295.53,193.46 304.95,186.02 314.93,179.37 320.18,176.48 325.64,173.99 334.2,171.23 340.11,170.23 343.1,170.03 346.1,170.03 352.06,170.69 357.86,172.2 366.08,175.85 373.58,180.8 378.21,184.62 382.55,188.76 386.64,193.15 392.36,200.09 419.73,235.81 432.27,252.66 438.29,259.33 442.68,263.42 449.82,268.9 457.58,273.45 465.84,276.99 474.47,279.55" fill="none" stroke="#000000" stroke-width="1"/><polyline id="SvgjsPolyline2026" points="130.12,1.88 144.08,50.93 156.24,91.13 167.56,125.3 178.09,153.39 187.73,175.36 193.19,186.05 197.7,193.84 202.67,201.34 206.33,206.09 210.33,210.56 216.91,216.69 221.82,220.13 224.47,221.53 230.13,223.51 233.08,224.01 239.07,223.99 242.03,223.5 247.76,221.76 255.84,217.81 263.39,212.92 270.61,207.54 298.83,185.2 308.74,178.44 316.55,173.96 321.96,171.38 327.57,169.25 336.3,167.11 342.27,166.57 345.27,166.61 348.26,166.85 354.15,167.97 359.83,169.88 367.82,174.01 375.1,179.29 381.73,185.37 385.83,189.75 391.57,196.68 434.67,254.34 440.82,260.9 445.3,264.9 452.57,270.19 457.77,273.18" fill="none" stroke="#000000" stroke-width="1"/><polyline id="SvgjsPolyline2027" points="199.62,0.09 206.53,13.41 212.52,23.8 219.05,33.87 224.38,41.12 230.15,48.02 236.45,54.45 243.36,60.21 250.91,65.09 256.29,67.74 261.91,69.85 267.7,71.39 273.62,72.39 285.59,73.09 309.57,72.16 318.57,72.18 327.53,72.95 333.43,74.04 339.21,75.65 347.53,79.07 355.3,83.59 362.46,89.03 369.04,95.16 377.01,104.13 384.2,113.73 392.35,126.33 399.76,139.36 406.62,152.71 413.03,166.27 422.75,188.21 433.64,209.59 455.59,248.87 460.61,256.34 466.33,263.28 472.87,269.45 480.29,274.53 485.68,277.16 494.24,279.91 503.11,281.41 512.09,281.97 524.08,281.74 536.04,280.72" fill="none" stroke="#000000" stroke-width="1"/><polyline id="SvgjsPolyline2028" points="192.42,1.78 198.82,15.34 205.77,28.64 211.83,38.99 218.46,48.99 225.84,58.45 231.97,65.03 238.72,70.98 246.15,76.04 254.1,80.26 259.68,82.47 265.45,84.09 274.34,85.47 286.33,85.74 316.27,83.97 325.26,84.3 334.15,85.63 342.78,88.16 350.96,91.9 358.55,96.72 365.53,102.39 371.95,108.71 379.72,117.84 386.77,127.55 394.79,140.22 406.24,161.31 420.31,191.16 427.21,204.47 450.9,246.22 457.51,256.23 463.28,263.13 467.56,267.33 472.23,271.1 477.27,274.34 482.65,276.99 488.29,279.02 494.11,280.47 503.02,281.72" fill="none" stroke="#000000" stroke-width="1"/><polyline id="SvgjsPolyline2029" points="247.69,0.39 252.97,3.23 258.49,5.58 264.21,7.41 273.02,9.22 284.97,10.25 305.96,10.46 314.95,10.89 326.84,12.52 332.69,13.83 341.2,16.73 346.62,19.3 354.27,24.03 361.32,29.62 369.81,38.09 379.19,49.79 389.04,64.84 397.78,80.58 405.7,96.74 415.33,118.72 425.26,143.83 436.67,174.79 444.9,194.11 456.56,218.46 470.17,245.2 474.69,252.97 479.88,260.32 485.89,267.01 492.86,272.69 500.78,276.93 506.47,278.84 515.31,280.44 521.3,280.85 527.3,280.86 539.27,280.04 554.12,277.94" fill="none" stroke="#000000" stroke-width="1"/><polyline id="SvgjsPolyline2030" points="416.55,0.06 426.08,25.32 435.83,53.7 447.6,90.88 463.79,145.53 470.56,165.41 478.2,184.96 487.73,206.99 501.84,236.82 508.88,250.06 512.18,255.07 515.83,259.82 522.16,266.22 526.99,269.76 529.6,271.25 535.11,273.59 537.99,274.44 543.89,275.51 552.87,275.85 564.81,274.71 576.61,272.5" fill="none" stroke="#000000" stroke-width="1"/><polyline id="SvgjsPolyline2031" points="376.96,598.54 382.02,575.09 387.96,551.83 395.01,528.9 402.34,509.22 409.75,492.82 416.9,479.64 425.14,467.11 430.69,460.03 434.66,455.53 441.04,449.19 447.93,443.4 455.29,438.23 465.74,432.33 473.92,428.59 482.31,425.33 510.76,415.82 524.81,410.56 538.43,404.29 551.43,396.82 558.87,391.76 566.04,386.32 577.34,376.46 587.86,365.78 599.47,352.03" fill="none" stroke="#000000" stroke-width="1"/><polyline id="SvgjsPolyline2032" points="501.05,0.18 516.45,55.06 525.81,86.7 533.94,109.28 542.27,128.56 547.54,139.33 554.71,152.51 562.56,165.29 569.39,175.15 576.77,184.61 582.71,191.37 591.22,199.83 598.09,205.64" fill="none" stroke="#000000" stroke-width="1"/><polyline id="SvgjsPolyline2033" points="493.94,0.59 512.34,67.09 519.97,92.99 528.08,115.57 533.86,129.41 538.88,140.31 545.67,153.69 553.07,166.74 561.13,179.38 568.13,189.13 575.67,198.46 583.84,207.25 590.42,213.38 599.81,220.85" fill="none" stroke="#000000" stroke-width="1"/><polyline id="SvgjsPolyline2034" points="37.24,598.72 43.05,581.69 48.37,567.66 52.98,556.58 59.27,542.97 66.23,529.68 72.35,519.36 79,509.37 86.24,499.8 92.05,492.93 98.19,486.35 111.34,474.07 125.35,462.78 149.39,444.83 161.22,435.61 172.69,425.94 181.53,417.82 192.09,407.17 202.08,395.99 211.47,384.29 220.22,372.11 226.68,362 232.59,351.56 237.82,340.76 241.18,332.41 243.98,323.86 246.94,312.23 248.62,303.39 250.02,291.48 251.72,282.64 254.29,274.02 258.02,265.84 263.76,255.3 270.09,245.11 278.44,232.65 285.51,222.96 293.04,213.62 299.04,206.91 305.39,200.53 312.15,194.59 319.37,189.23 327.14,184.69 335.46,181.31 341.3,179.91 347.26,179.35 353.25,179.72 359.1,181 361.95,181.95 367.41,184.43 372.54,187.52 377.35,191.11 381.86,195.07 386.09,199.32 411.09,229.25 427.69,250.54 431.58,255.11 435.75,259.42 440.21,263.43 447.43,268.8" fill="none" stroke="#000000" stroke-width="1"/><polyline id="SvgjsPolyline2035" points="250.94,599.12 254.84,551.28 258.2,500.39 260.28,458.44 263.41,377.5 265.09,350.55 266.76,338.68 272.39,315.35 274.92,300.57 271.89,282.85 271.36,276.88 271.47,270.88 272.91,262.01 274.61,256.26 276.82,250.68 282.41,240.07 290.44,227.41 299.41,215.38 307.35,206.4 316.12,198.21 320.86,194.54 325.86,191.23 333.89,187.17 339.57,185.26 342.5,184.6 345.46,184.15 351.45,183.97 354.44,184.24 360.3,185.49 365.92,187.59 373.74,192.02 378.54,195.62 385.17,201.7 389.26,206.09 410.75,231.12 427.61,252.21 433.75,258.79 438.2,262.81 445.4,268.2 453.17,272.73 461.42,276.32 472.93,279.68" fill="none" stroke="#000000" stroke-width="1"/><polyline id="SvgjsPolyline2036" points="117.62,598.74 124.64,582.16 132.14,565.8 140.14,549.68 148.59,533.79 165.04,505.18 196.26,453.94 211.54,428.13 224.66,404.53 235.54,383.14 244.27,364.04 251.03,347.36 253.91,338.84 257.98,324.4 260.76,312.73 262.78,300.9 262.97,282.91 263.96,273.97 265.3,268.12 268.12,259.58 270.48,254.06 274.65,246.09 280.92,235.86 285.92,228.38 291.2,221.09 296.8,214.05 302.76,207.31 309.12,200.94 318.33,193.26 325.87,188.35 334.01,184.52 339.74,182.78 345.66,181.84 351.66,181.82 357.58,182.74 360.47,183.54 366.04,185.75 371.3,188.63 376.22,192.06 380.83,195.9 387.22,202.24 410.49,229.7 427.22,250.89 431.14,255.43 435.36,259.7 439.85,263.67 447.12,268.97 454.96,273.38 460.45,275.79" fill="none" stroke="#000000" stroke-width="1"/><polyline id="SvgjsPolyline2037" points="143.35,599.28 155.5,568.6 168.74,538.38 184.15,505.84 212.16,449.41 225.22,422.4 237.54,395.05 246.49,372.78 251.55,358.66 257.09,341.54 261.92,324.2 264.64,312.51 266.61,300.68 265.9,282.7 266.43,273.73 268.23,264.91 271.1,256.39 276.33,245.6 285.84,230.32 294.64,218.17 304.41,206.8 313.06,198.49 320.13,192.93 327.78,188.19 336.02,184.61 341.82,183.09 344.79,182.64 350.78,182.44 356.72,183.19 362.49,184.85 365.26,185.98 370.58,188.76 375.56,192.1 380.22,195.88 386.67,202.15 410.05,229.52 428.75,252.98 434.94,259.5 439.43,263.48 446.69,268.8 451.84,271.86 457.23,274.5" fill="none" stroke="#000000" stroke-width="1"/><polyline id="SvgjsPolyline2038" points="331.42,389.85 329.62,377.98 327.78,369.17 325.3,360.52 320.43,346.34 318.24,337.61 317.59,331.66 317.93,325.67 319.16,319.8 322.6,308.31 325.39,296.64 331.07,276.43 334.72,265 338.94,257.06 342.38,252.15 346.29,247.6 350.7,243.54 355.68,240.2 358.38,238.9 364.13,237.23 370.11,237 373.09,237.36 378.9,238.81 384.48,241.02 389.8,243.78 394.89,246.95 406.96,255.86 411.96,259.17 419.74,263.7 427.79,267.72 436.06,271.26 447.38,275.22 456.06,277.62 467.8,280.07" fill="none" stroke="#000000" stroke-width="1"/><polyline id="SvgjsPolyline2039" points="0.55,392.22 5.92,385.01 11.63,378.05 21.98,367.2 28.7,361.22 33.41,357.5 40.79,352.35 45.92,349.24 51.19,346.38 59.36,342.6 70.62,338.47 85.09,334.53 117.37,327.67 126.01,325.16 134.36,321.81 139.63,318.95 144.51,315.48 148.84,311.33 150.72,308.99 153.76,303.83 154.78,301.02 156.03,295.16 158.49,289.7 160.23,287.26 162.32,285.11 164.68,283.27 169.96,280.44 175.59,278.35 207.24,269.04 229.99,261.38 235.61,259.29 240.86,256.4 247.99,250.93 254.51,244.72 284.7,211.36 293.1,202.79 301.92,194.66 311.33,187.21 318.86,182.29 326.87,178.2 335.38,175.29 341.27,174.21 347.26,173.97 350.26,174.18 356.15,175.26 361.83,177.17 367.22,179.8 372.29,183 377.05,186.66 383.63,192.79 389.65,199.48 415.71,232.42 430.19,251.55 434.09,256.11 440.5,262.43 445.13,266.23 450.05,269.66 455.24,272.68" fill="none" stroke="#000000" stroke-width="1"/><polyline id="SvgjsPolyline2040" points="1.31,396.32 6.77,389.17 12.59,382.31 18.81,375.8 25.44,369.72 32.5,364.14 39.99,359.15 47.88,354.82 53.33,352.33 61.77,349.21 67.53,347.53 73.37,346.16 82.24,344.61 94.16,343.31 124.1,341.35 138.96,339.36 147.7,337.24 153.39,335.33 161.56,331.57 166.68,328.46 171.47,324.84 175.84,320.73 181.47,313.73 184.49,308.55 186.76,303 188.64,294.21 190.65,288.56 193.54,283.31 195.34,280.91 199.57,276.67 204.44,273.17 209.68,270.26 220.65,265.39 234.64,259.98 237.35,258.71 242.46,255.56 247.17,251.86 253.74,245.7 285.96,210.13 294.4,201.61 303.3,193.56 312.8,186.24 320.42,181.45 328.53,177.57 337.13,174.94 343.06,174.1 346.06,174 349.06,174.11 354.98,175.02 357.88,175.79 363.48,177.93 368.78,180.74 373.75,184.09 380.64,189.89 388.88,198.6 414.98,231.5 429.45,250.64 433.3,255.25 439.62,261.65 444.2,265.52 449.07,269.03 456.86,273.51 462.34,275.95 468,277.95 479.66,280.74" fill="none" stroke="#000000" stroke-width="1"/><polyline id="SvgjsPolyline2041" points="111.66,0.6 131.45,72.94 142.08,110.46 154.23,150.67 163.69,179.13 174.28,207.2 180.23,220.97 184.11,229.09 189.77,239.67 194.5,247.32 197.97,252.22 202.07,256.58 204.47,258.38 207.1,259.82 209.91,260.86 215.83,261.76 221.81,261.47 227.73,260.45 233.53,258.96 238.98,256.47 246.37,251.34 253.05,245.32 261.37,236.67 279.41,216.58 287.64,207.85 298.41,197.41 307.59,189.69 317.45,182.86 322.68,179.92 328.13,177.42 333.8,175.48 339.66,174.21 345.64,173.74 348.64,173.83 351.62,174.15 357.48,175.44 365.79,178.85 373.4,183.63 380.31,189.39 384.57,193.62 390.51,200.38 416.52,233.35 431.01,252.48 437.06,259.14 443.77,265.13" fill="none" stroke="#000000" stroke-width="1"/><polyline id="SvgjsPolyline2042" points="117.87,2.46 134.63,63.19 148.85,112.16 159.7,146.49 170.73,177.59 176.29,191.52 181.1,202.51 186.34,213.31 190.65,221.21 195.39,228.85 200.73,236.1 204.73,240.56 211.36,246.64 216.36,249.95 219.07,251.23 224.86,252.76 227.85,252.93 233.77,252.09 236.62,251.15 242.01,248.53 249.39,243.39 256.17,237.48 289.78,203.22 298.62,195.1 307.95,187.56 317.94,180.92 323.23,178.1 328.74,175.73 337.39,173.28 343.34,172.56 346.34,172.52 349.34,172.69 355.24,173.71 358.13,174.53 363.7,176.75 371.47,181.27 376.26,184.88 380.74,188.86 384.96,193.13 390.85,199.93 433.08,254.49" fill="none" stroke="#000000" stroke-width="1"/><polyline id="SvgjsPolyline2043" points="212.71,0.03 219.3,10.06 224.64,17.3 230.42,24.2 234.55,28.55 241.22,34.58 246.01,38.19 251.08,41.41 256.41,44.15 264.83,47.3 270.66,48.73 276.58,49.68 288.55,50.42 315.55,50.35 324.51,51.11 330.42,52.13 339.08,54.58 347.31,58.19 355,62.87 362.07,68.42 370.61,76.84 378.27,86.07 386.85,98.37 396.04,113.84 403.01,127.13 410.74,143.38 417.95,159.88 427.05,182.08 434.62,198.41 444.19,217.1 459.82,246.17 464.53,253.83 468.03,258.7 473.93,265.49 480.71,271.4 485.74,274.66 493.95,278.33 502.67,280.52 511.61,281.51 520.6,281.66 532.58,280.98" fill="none" stroke="#000000" stroke-width="1"/><polyline id="SvgjsPolyline2044" points="230.02,0.34 236.47,6.61 245.87,14.05 253.54,18.76 261.76,22.4 270.4,24.89 279.28,26.31 288.26,26.91 315.26,27.27 324.21,28.15 333.02,29.95 341.53,32.88 349.56,36.93 357,41.97 363.84,47.81 372.1,56.52 381.25,68.39 389.39,80.99 398.17,96.7 406.13,112.84 413.49,129.27 421.5,148.68 432.25,176.69 440.67,195.92 449.89,214.79 465.05,244.1 469.53,251.9 472.87,256.89 478.5,263.9 485.01,270.1 492.48,275.1 497.93,277.59 503.66,279.36 512.53,280.84 521.52,281.26 530.51,280.95" fill="none" stroke="#000000" stroke-width="1"/><polyline id="SvgjsPolyline2045" points="389.31,597.99 394.37,577.61 400.17,557.43 405.86,540.36 412.36,523.57 419.88,507.22 427.1,494.08 435.36,481.56 442.83,472.17 448.96,465.59 455.56,459.47 465.03,452.11 472.57,447.2 480.4,442.76 488.43,438.7 515.73,426.25 529.17,419.61 542.19,412.16 552.18,405.52 566.37,394.45 577.43,384.33 587.82,373.51 599.4,359.73" fill="none" stroke="#000000" stroke-width="1"/><polyline id="SvgjsPolyline2046" points="514.22,2.76 526.04,43.06 535.86,74.56 543.24,94.22 550.58,110.65 556.03,121.34 561.94,131.78 568.37,141.91 573.57,149.26 579.1,156.36 585.02,163.14 591.34,169.54 598.11,175.47" fill="none" stroke="#000000" stroke-width="1"/><polyline id="SvgjsPolyline2047" points="506.52,0.52 521.38,52.43 529.23,78.27 533.17,89.6 537.51,100.79 546.04,119.97 551.49,130.66 557.39,141.11 563.77,151.27 570.68,161.08 578.2,170.43 584.27,177.07 590.77,183.3 597.65,189.09" fill="none" stroke="#000000" stroke-width="1"/><polyline id="SvgjsPolyline2048" points="49.57,599.62 59,574.32 64.93,560.55 70.09,549.71 75.67,539.09 81.71,528.72 88.25,518.66 95.31,508.96 106.85,495.16 119.41,482.26 130.43,472.09 164.23,442.39 175.12,432.07 185.61,421.34 197.59,407.91 207.03,396.26 215.97,384.21 224.33,371.77 230.53,361.49 236.17,350.9 241.12,339.97 244.26,331.54 246.84,322.92 249.7,311.27 251.29,302.41 252.16,293.45 253.48,284.55 255.58,275.8 257.59,270.16 264.15,256.67 270.26,246.35 280.19,231.33 291.01,216.95 296.84,210.1 303.02,203.55 309.58,197.4 314.2,193.57 321.55,188.38 326.75,185.4 332.22,182.92 337.92,181.08 343.82,180 349.81,179.8 352.8,180.05 358.67,181.25 364.31,183.28 369.64,186.02 374.64,189.33 381.56,195.09" fill="none" stroke="#000000" stroke-width="1"/><polyline id="SvgjsPolyline2049" points="238.99,598.07 248.66,529.75 255.1,476.14 258.93,434.31 263.55,365.47 265.07,347.53" fill="none" stroke="#000000" stroke-width="1"/><polyline id="SvgjsPolyline2050" points="104.18,599.78 111.24,583.22 120.19,564.23 128.52,548.27 137.42,532.63 153.3,507.18 190.22,452.47 204.96,429.85 220.52,404.2 233.47,380.52 240.12,367.07 247.47,350.64 251.62,339.38 255,327.87 258.61,313.31 260.7,301.5 261.37,283.52 262.53,274.6 263.97,268.78 266.9,260.27 269.3,254.77 273.49,246.81 284.78,229.11 295.62,214.75 301.54,207.97 307.85,201.56 316.97,193.77 324.43,188.73 332.47,184.71 338.15,182.79 344.03,181.64 347.02,181.4 353.01,181.61 358.9,182.76 361.76,183.66 367.26,186.05 372.43,189.08 377.28,192.61 381.82,196.53 386.07,200.76 411.3,230.5 429.96,253.99 434.07,258.35 438.47,262.43 443.16,266.17 448.12,269.55" fill="none" stroke="#000000" stroke-width="1"/><polyline id="SvgjsPolyline2051" points="156.68,597.95 169.22,564.21 180.46,536.4 193.48,506.07 227.58,429.31 236.82,407.16 244.36,387.56 250.25,370.55 254.71,356.23 262.1,330.26 266.34,312.77 268.33,300.94 267.3,285.99 267.22,276.99 267.84,271.03 269.82,262.25 272.89,253.8 278.37,243.13 288.01,227.93 296.97,215.91 304.86,206.88 313.52,198.58 320.61,193.03 328.27,188.32 336.54,184.79 342.35,183.33 345.32,182.91 351.31,182.77 357.25,183.59 360.15,184.35 365.76,186.47 373.57,190.93 378.36,194.53 384.98,200.62 389.07,205.02 410.45,230.15 427.23,251.3 431.19,255.81" fill="none" stroke="#000000" stroke-width="1"/><polyline id="SvgjsPolyline2052" points="0.48,372.64 9.94,361 22.36,347.99 33.53,337.97 54.52,320.99 63.25,312.77 66.99,308.09 69.91,302.86 72.17,294.18 73.41,291.45 75.05,288.94 77.13,286.79 79.61,285.12 82.39,283.98 88.28,282.92 94.27,282.72 118.27,283.22 130.26,282.96 148.21,281.62 163.07,279.62 177.81,276.84 195.28,272.52 215.37,266.39 235.19,259.48 237.89,258.17 242.96,254.96 247.65,251.22 252.06,247.16 260.37,238.5 286.45,209.51 294.93,201.02 303.87,193.01 313.41,185.75 321.07,181.03 329.23,177.24 337.86,174.74 343.81,174 349.8,174.13 352.78,174.53 358.59,175.98 366.83,179.58 371.92,182.74 376.7,186.37 383.31,192.47 389.36,199.13 415.43,232.06 429.9,251.2 435.84,257.96 442.43,264.08 447.19,267.74 454.84,272.47 460.24,275.07" fill="none" stroke="#000000" stroke-width="1"/><polyline id="SvgjsPolyline2053" points="1.73,378.71 9.4,369.48 17.66,360.78 26.54,352.72 33.59,347.13 40.95,341.94 48.57,337.15 80.13,319.84 85.2,316.64 89.99,313.03 94.29,308.85 97.7,303.93 98.88,301.18 100.21,295.35 101.44,292.61 103.11,290.13 105.26,288.05 107.81,286.47 110.6,285.37 116.47,284.16 149.35,281.5 164.21,279.44 176,277.22 187.69,274.53 202.16,270.55 219.3,265.07 236.24,259 238.9,257.61 243.88,254.28 250.73,248.44 259.12,239.86 279.07,217.46 289.34,206.53 300.19,196.18 309.47,188.57 319.46,181.94 324.77,179.15 330.3,176.84 336.05,175.13 341.97,174.14 347.96,174 350.95,174.26" fill="none" stroke="#000000" stroke-width="1"/><polyline id="SvgjsPolyline2054" points="1.32,383.55 10.9,372.01 19.26,363.41 30.64,353.65 40.46,346.76 50.85,340.75 61.67,335.58 69.99,332.15 89.66,324.78 97.94,321.28 105.91,317.09 110.95,313.84 115.5,309.94 119.21,305.24 120.6,302.59 123.11,293.97 124.54,291.34 126.43,289.02 128.74,287.11 131.36,285.66 137.05,283.79 166.67,279.04 187.2,274.65" fill="none" stroke="#000000" stroke-width="1"/><polyline id="SvgjsPolyline2055" points="0.25,387.61 9.67,375.94 17.91,367.22 22.28,363.11 29.17,357.32 38.93,350.35 49.31,344.34 54.7,341.7 62.99,338.2 77.19,333.38 106.05,325.2 114.48,322.06 119.87,319.43 124.92,316.2 127.25,314.31 129.4,312.21 133.23,307.6 136.19,302.4 138.63,293.76 140.01,291.1 141.8,288.7 143.98,286.65 146.49,285 152.01,282.68 163.67,279.86" fill="none" stroke="#000000" stroke-width="1"/><polyline id="SvgjsPolyline2056" points="0.47,393.2 5.94,386.06 11.76,379.19 17.97,372.68 24.57,366.57 31.59,360.94 39.02,355.86 44.19,352.81 52.23,348.79 63.42,344.46 69.17,342.73 77.92,340.63 89.74,338.6 119.51,334.87 131.28,332.55 137.04,330.9 142.67,328.81 150.66,324.71 155.56,321.24 160.09,317.31 162.23,315.21 166.01,310.56 169.01,305.37 170.13,302.59 171.39,296.73 173.27,291.04 176.24,285.84 178.15,283.54 182.72,279.67 187.93,276.69 196.22,273.21 210.38,268.26" fill="none" stroke="#000000" stroke-width="1"/><polyline id="SvgjsPolyline2057" points="99.29,0.87 134.12,128.19 145.02,165.63 154,194.26 163.82,222.6 173.83,247.67 176.43,253.08 179.57,258.18 183.48,262.73 185.79,264.63 188.35,266.2 191.12,267.35 194.03,268.07 197,268.41 202.99,268.21 208.91,267.24 217.64,265.05 231.94,260.51 237.48,258.24 244.99,253.3 251.74,247.35 260.08,238.72 278.02,218.55 288.25,207.58 299.04,197.16 308.24,189.46 318.13,182.68 323.39,179.79 328.86,177.35 337.48,174.78 343.42,174 346.42,173.92 352.39,174.44 355.33,175.03 361.05,176.83 369.08,180.87 376.4,186.1 383.04,192.17 389.11,198.81 415.19,231.73 429.66,250.88 437.67,259.79 442.12,263.82 446.86,267.5 454.48,272.27 462.64,276.06 471.19,278.87" fill="none" stroke="#000000" stroke-width="1"/><polyline id="SvgjsPolyline2058" points="401.67,597.83 406.49,580.49 412.86,560.48 419.1,543.6 424.99,529.81 431.61,516.35 437.54,505.92 445.85,493.44 453.29,484.03 459.36,477.38 465.84,471.14 472.69,465.31 479.88,459.89 494.97,450.09 520.94,435.07 533.73,427.23 546.11,418.76 555.63,411.47 567.02,401.71 577.81,391.29 588.01,380.29 599.49,366.43" fill="none" stroke="#000000" stroke-width="1"/><polyline id="SvgjsPolyline2059" points="526.58,2.32 537.36,36.67 545.98,62.25 552.65,78.97 559.03,92.54 567.77,108.27 572.62,115.85 577.83,123.19 587.39,134.74 591.55,139.07 598.18,145.15" fill="none" stroke="#000000" stroke-width="1"/><polyline id="SvgjsPolyline2060" points="519,0.32 530.26,37.65 539.46,66.21 545.89,83.02 553.32,99.41 557.44,107.41 563.39,117.83 569.89,127.92 575.17,135.2 580.83,142.2 586.9,148.84 597.99,158.93" fill="none" stroke="#000000" stroke-width="1"/><polyline id="SvgjsPolyline2061" points="62.85,597.97 71.7,575.66 76.6,564.71 81.88,553.93 92.1,535.59 96.89,527.98 103.68,518.08 114.69,503.84 126.54,490.3 136.89,479.44 168.6,447.52 178.87,436.58 188.81,425.35 198.37,413.79 209.29,399.48 217.9,387.2 226.03,374.6 232.13,364.26 237.73,353.65 242.67,342.72 245.83,334.29 250.01,319.89 252.65,308.19 253.63,302.27 255.07,287.34 256.65,278.48 259.25,269.88 264.1,258.91 268.35,250.97 274.66,240.77 281.33,230.79 288.41,221.11 294.06,214.1 300.02,207.36 306.35,200.96 313.11,195.02 320.35,189.68 328.14,185.19 336.5,181.9 342.36,180.59 348.33,180.15 354.31,180.64 360.14,182.04 368.37,185.62 373.46,188.8 378.23,192.44 386.88,200.75 411.91,230.65 428.56,251.9 434.62,258.55 441.34,264.53 446.17,268.09 451.27,271.25 456.6,274" fill="none" stroke="#000000" stroke-width="1"/><polyline id="SvgjsPolyline2062" points="226.56,599.28 242.78,513.8 250.5,469.47 254.5,442.77 257.52,418.96 265.04,344.34 266.83,335.53 271.85,315.14 274,303.33 274.36,300.35 274.04,297.38 271.9,285.58 271.02,276.62 271.2,270.63 272.73,261.77" fill="none" stroke="#000000" stroke-width="1"/><polyline id="SvgjsPolyline2063" points="91.91,598.06 98.96,581.5 108.01,562.55 116.54,546.7 125.77,531.25 133.96,518.69 144.28,503.94 183.92,451.17 203.06,424.29 212.97,409.27 220.89,396.53 234.18,373.03 240.94,359.64 245.88,348.7 249.09,340.3 252.61,328.83 255.64,317.22 258.05,305.46 258.8,299.52 259.6,284.54 260.89,275.64 262.4,269.83 265.44,261.36 270.59,250.53 278.36,237.7 288.58,222.9 298,211.22 306.24,202.5 312.91,196.47 320.07,191.02 327.79,186.41 336.1,182.98 341.93,181.56 347.89,181 353.88,181.37 359.73,182.67 365.33,184.8 370.62,187.63 377.94,192.86 382.43,196.84 388.66,203.33 409.88,228.6" fill="none" stroke="#000000" stroke-width="1"/><polyline id="SvgjsPolyline2064" points="168.99,599.15 179.59,567.9 191.97,534.1 202.79,506.12 228.34,442.02 236.91,419.61 243.95,399.82 250.37,379.83 255.27,362.51 265.15,324.79 268.99,307.21 269.87,301.27 268.32,283.35 268.2,277.35 269.12,268.41 271.32,259.69 273.4,254.07 275.91,248.62 281.85,238.19 291.83,223.22 301.15,211.48 309.41,202.77 318.51,194.96 325.98,189.95 334.06,186 342.7,183.56 348.67,183 354.65,183.38 360.5,184.7 363.33,185.69 368.77,188.22 373.87,191.36 378.65,194.99 383.12,198.99 389.32,205.51 408.8,228.32 427.52,251.76 431.51,256.24 438.03,262.44 442.73,266.17 447.7,269.53 452.91,272.49" fill="none" stroke="#000000" stroke-width="1"/><polyline id="SvgjsPolyline2065" points="0.9,353.11 10.28,341.41 25.76,323.06 32.96,313.47 36.07,308.34 38.55,302.89 40.5,294.12 42.69,288.55 44.22,285.97 46.1,283.64 48.37,281.68 50.96,280.18 53.79,279.19 56.74,278.64 62.73,278.46 98.5,282.43 110.48,283.07 122.48,283.17" fill="none" stroke="#000000" stroke-width="1"/><polyline id="SvgjsPolyline2066" points="0.71,363.37 8.36,354.14 14.39,347.45 37.65,324.04 45.54,315.01 50.45,307.48 51.85,304.82 52.99,302.05 55.17,293.33 56.34,290.57 57.85,287.99 59.76,285.68 62.08,283.78 64.73,282.38 67.59,281.49 73.54,280.82 79.54,280.95 100.47,282.61" fill="none" stroke="#000000" stroke-width="1"/><polyline id="SvgjsPolyline2067" points="0.46,377 6.11,370 14.14,361.08 20.54,354.76 27.26,348.77 34.28,343.14 41.56,337.84 66.6,321.33 71.39,317.71 75.82,313.67 79.61,309.03 81.11,306.43 82.2,303.65 83.3,297.75 84.15,294.88 85.38,292.14 87.04,289.65 89.16,287.53 91.68,285.93 94.47,284.83 100.37,283.76 106.36,283.43" fill="none" stroke="#000000" stroke-width="1"/><polyline id="SvgjsPolyline2068" points="15.3,1.04 23.8,16.9 31.45,33.19 39.56,52.56 48.06,75.01 58.78,106.22 69.6,140.55 80.68,177.94 100.48,247.16 103.57,255.61 107.41,263.75 110.6,268.82 114.32,273.53 118.74,277.57 121.3,279.13 126.93,281.15 129.88,281.68 135.87,282.09 147.85,281.54 165.69,279.17 183.32,275.59 203.59,270.12 223.56,263.61" fill="none" stroke="#000000" stroke-width="1"/><polyline id="SvgjsPolyline2069" points="84.05,1.54 97.01,47.76 121.39,137.51 133.57,180.83 141.26,206.71 148.48,229.6 153.25,243.82 156.59,252.17 160.9,260.06 164.62,264.76 169.02,268.84 171.48,270.55 174.17,271.87 177.03,272.76 179.99,273.24 185.98,273.28 194.88,271.95 203.62,269.81" fill="none" stroke="#000000" stroke-width="1"/><polyline id="SvgjsPolyline2070" points="68.38,0.48 77.94,32.06 87.05,63.78 127.75,211.27 137.12,242.91 141.25,254.17 145.32,262.19 148.81,267.06 152.93,271.42 155.25,273.31 157.83,274.84 160.61,275.96 163.53,276.65 169.51,277.05 175.49,276.59 184.35,275.06" fill="none" stroke="#000000" stroke-width="1"/><polyline id="SvgjsPolyline2071" points="414.03,598.03 418.4,583.68 424.24,566.65 429.67,552.68 435.73,538.96 442.52,525.58 448.56,515.21 455.2,505.22 462.47,495.68 468.36,488.87 474.6,482.39 481.17,476.24 488.02,470.41 499.92,461.27 526.9,442.28 538.99,433.39 550.71,424.03 559.76,416.15 568.49,407.92 578.95,397.17 588.91,385.96 598.37,374.32" fill="none" stroke="#000000" stroke-width="1"/><polyline id="SvgjsPolyline2072" points="538.93,1.67 545.69,21.56 554.92,46.93 560.7,60.77 565.94,71.56 573.34,84.61 581.78,97 589.4,106.27 597.86,114.77" fill="none" stroke="#000000" stroke-width="1"/><polyline id="SvgjsPolyline2073" points="532.33,2.76 542.63,34.11 549.63,53.91 555.33,67.78 561.84,81.29 570.84,96.87 579.46,109.14 589.27,120.48 598.09,128.61" fill="none" stroke="#000000" stroke-width="1"/><polyline id="SvgjsPolyline2074" points="75.14,599.35 83.07,579.91 91.99,560.9 102.03,542.46 113.26,524.72 123.78,510.12 135,496.04 174.37,450.77 193.37,427.56 202.42,415.59 212.8,400.89 221.01,388.34 228.8,375.52 236.1,362.42 241.41,351.66 246.02,340.58 248.9,332.06 252.83,317.58 255.3,305.84 256.08,299.9 257.27,284.95 258.84,276.09 261.53,267.51 265.02,259.22 267.68,253.84 272.16,246.03 278.59,235.9 285.41,226.03 296.57,211.92 302.65,205.28 309.12,199.02 316.03,193.27 323.47,188.21 331.48,184.12 337.14,182.13 343,180.89 348.99,180.53 351.98,180.69 357.89,181.73 360.76,182.58 366.31,184.86 371.53,187.81 376.42,191.28 381,195.15 385.3,199.34 391.28,206.06 410.49,229.1 429.07,252.65 435.21,259.23 442,265.13" fill="none" stroke="#000000" stroke-width="1"/><polyline id="SvgjsPolyline2075" points="214.11,599.98 242.48,477.22 248.16,450.82 253.74,421.35 257.91,394.67 264.43,344.09 265.62,338.21 270.72,317.84 273.5,303.11 273.84,300.13 271.49,285.33 270.71,276.37 270.96,270.38 271.88,264.45" fill="none" stroke="#000000" stroke-width="1"/><polyline id="SvgjsPolyline2076" points="182.25,597.22 191.11,568.56 201.41,537.21 237.91,432.38 244.34,412.39 250.22,392.23 255.41,371.88 261.84,342.58 267.18,322.27 269.76,310.56 271.21,301.68 271.38,298.69 269.32,280.81 269.51,271.82 270.42,265.9 271.91,260.09 273.9,254.43 277.7,246.28 285.38,233.39 292.14,223.48 299.49,214 307.54,205.11 316.41,197.03 323.69,191.74 331.57,187.41 337.16,185.25 340.05,184.43 345.96,183.44 351.95,183.37 357.88,184.26 363.6,186.05 371.62,190.12 378.89,195.41 385.47,201.54 391.48,208.24" fill="none" stroke="#000000" stroke-width="1"/><polyline id="SvgjsPolyline2077" points="1.06,333.73 11.09,318.79 16.86,308.28 19.05,302.7 21.67,291.01 23.93,285.46 27.21,280.45 29.33,278.33 31.78,276.61 34.5,275.35 37.39,274.56 40.36,274.18 46.36,274.29 55.26,275.58 81.8,280.51 93.71,281.99 102.68,282.71 114.67,283.17 123.67,283.15 144.63,281.98" fill="none" stroke="#000000" stroke-width="1"/><polyline id="SvgjsPolyline2078" points="0.43,51.8 5.67,59.11 10.53,66.69 19.35,82.37 27.25,98.55 36.74,120.59 44.34,140.17 53.4,165.6 63.71,196.95 77.8,242.83 80.81,251.31 84.45,259.54 87.37,264.78 92.67,272.04 96.9,276.28 99.34,278.03 101.96,279.47 107.62,281.45 113.53,282.47 119.51,282.9" fill="none" stroke="#000000" stroke-width="1"/><polyline id="SvgjsPolyline2079" points="1.43,2.37 6.76,9.62 11.76,17.1 17.9,27.42 22.17,35.34 32.49,57 43.83,84.77 54.01,112.99 64.33,144.33 78.29,190.26 94.05,245.04 96.87,253.58 100.28,261.91 103.03,267.24 106.37,272.22 110.51,276.55 112.93,278.32 115.56,279.75 121.26,281.59 127.2,282.36 133.2,282.5" fill="none" stroke="#000000" stroke-width="1"/><polyline id="SvgjsPolyline2080" points="28.7,0.37 36.09,16.78 43.97,36.24 53.25,61.6 61.83,87.2 70.79,115.83 79.33,144.59 107.82,245.65 110.62,254.2 112.81,259.79 116.82,267.83 120.24,272.76 124.54,276.92 127.06,278.55 129.79,279.79 135.6,281.2 141.59,281.58 147.58,281.38" fill="none" stroke="#000000" stroke-width="1"/><polyline id="SvgjsPolyline2081" points="55.96,1.24 67.21,35.44 77.65,69.89 90.81,116.05 121.97,228.83 126.96,246.12 130.96,257.43 134.85,265.54 138.18,270.53 142.39,274.78 144.88,276.46 147.59,277.73 150.46,278.59 156.41,279.28 162.4,279.09 171.33,277.94" fill="none" stroke="#000000" stroke-width="1"/><polyline id="SvgjsPolyline2082" points="426.38,598.55 431.12,584.32 436.34,570.26 442.11,556.42 447.18,545.54 452.72,534.89 458.75,524.53 465.34,514.49 472.49,504.86 482.22,493.45 494.9,480.68 508.38,468.75 542.9,439.89 551.83,431.87 562.66,421.49 571.03,412.9 581.11,401.8 588.88,392.65 598.2,380.9" fill="none" stroke="#000000" stroke-width="1"/><polyline id="SvgjsPolyline2083" points="551.26,0.72 557.69,17.53 564.53,34.18 569.52,45.09 573.69,53.07 578.24,60.83 584.99,70.75 592.58,80.04 598.88,86.46" fill="none" stroke="#000000" stroke-width="1"/><polyline id="SvgjsPolyline2084" points="202.39,597.38 215.37,548.06 241.73,452.64 247.6,429.37 252.25,408.89 257.36,382.38 263.56,343.87 270.01,317.66 272.33,305.89 273.04,299.94 270.48,282.13 270.27,273.14 270.95,267.18 272.24,261.32 274.07,255.61 276.38,250.07 280.58,242.12 288.51,229.39 295.48,219.63 303.1,210.36 311.47,201.77 318.32,195.93 325.74,190.84 331.02,188.01 339.45,184.9 345.35,183.8 351.34,183.62 357.28,184.4 363.03,186.09 371.1,190.04 378.43,195.26 385.06,201.33" fill="none" stroke="#000000" stroke-width="1"/><polyline id="SvgjsPolyline2085" points="0.89,312.46 4.32,304.15 5.15,301.27 6.04,295.34 7.53,289.53 9.66,283.92 11.02,281.25 14.51,276.39 16.7,274.34 19.19,272.68 21.93,271.45 24.83,270.68 27.8,270.32 30.8,270.28 36.77,270.86 45.59,272.63 66.01,277.53 77.79,279.83" fill="none" stroke="#000000" stroke-width="1"/><polyline id="SvgjsPolyline2086" points="1.35,31.95 6.56,39.29 13.01,49.41 21.77,65.13 30.83,84.07 40.12,106.2 50.61,134.3 61.17,165.56 71.93,199.92 86.51,248.79 89.64,257.23 93.48,265.36 96.66,270.44 100.54,275.01 105.29,278.65 107.97,280 110.79,281.03 116.65,282.27 122.63,282.77 131.63,282.78" fill="none" stroke="#000000" stroke-width="1"/><polyline id="SvgjsPolyline2087" points="0.38,73.09 9.05,85.33 18.17,100.84 26.28,116.91 34.82,136.09 43.7,158.39 52.88,183.78 60.53,206.52 74.22,249.39 77.58,257.73 80.24,263.11 83.35,268.24 87.1,272.92 91.61,276.86 94.16,278.44 96.87,279.73 102.59,281.5 108.51,282.46 114.49,282.93" fill="none" stroke="#000000" stroke-width="1"/><polyline id="SvgjsPolyline2088" points="42.15,0.81 49.63,20.43 55.63,37.4 62.27,57.32 70.36,83.08 85.54,134.9 112.06,230.28 117.92,250.45 122.24,261.63 126.58,269.51 130.36,274.16 132.61,276.14 135.12,277.78 137.84,279.04 140.71,279.9 146.65,280.66 155.64,280.37 170.49,278.26 185.16,275.14 202.53,270.44 222.51,263.98 236.59,258.83 239.23,257.41 244.19,254.04 251.01,248.17 259.38,239.58 279.33,217.17 289.61,206.25 300.48,195.92 312.21,186.58 319.8,181.74 325.12,178.98 330.67,176.71 336.43,175.04 342.35,174.11 348.35,174.02 354.29,174.82 357.2,175.55" fill="none" stroke="#000000" stroke-width="1"/><polyline id="SvgjsPolyline2089" points="438.71,599.38 442.73,588.08 448.2,574.11 452.97,563.1 458.13,552.27 463.73,541.66 469.8,531.3 474.66,523.73 481.59,513.93 492.85,499.9 505.01,486.63 515.62,476.03 545.92,446.94 564.73,427.58 582.52,407.27 599.18,386.03" fill="none" stroke="#000000" stroke-width="1"/><polyline id="SvgjsPolyline2090" points="564.59,2.09 574.66,23.87 581.87,37.02 586.81,44.54 590.38,49.36 598.26,58.4" fill="none" stroke="#000000" stroke-width="1"/><polyline id="SvgjsPolyline2091" points="0.58,275.34 4.63,270.93 7.07,269.2 9.76,267.88 12.62,266.99 18.58,266.38 24.55,266.87 30.44,268 56.49,275.12 68.15,277.94 76.98,279.68 88.85,281.44 100.79,282.58 115.78,283.18 130.77,282.93 145.73,281.87" fill="none" stroke="#000000" stroke-width="1"/><polyline id="SvgjsPolyline2092" points="0.47,94.21 9.08,106.49 16.72,119.4 23.63,132.7 31.21,149.03 39.3,168.41 47.81,190.85 56.72,216.34 67.07,247.67 70.45,256.01 74.57,264 79.83,271.29 84.2,275.39 86.67,277.1 89.29,278.54 94.9,280.65 100.77,281.91 106.72,282.63" fill="none" stroke="#000000" stroke-width="1"/><polyline id="SvgjsPolyline2093" points="451.99,597.74 460.94,575.47 465.93,564.56 471.3,553.82 481.68,535.58 493.35,518.12 502.42,506.18 513.95,492.36 552.35,450.23 570.1,429.89 585.21,411.25 599.62,392.05" fill="none" stroke="#000000" stroke-width="1"/><polyline id="SvgjsPolyline2094" points="576.77,0.01 582.5,10.55 588.76,20.78 594.06,28.05 599.96,34.85" fill="none" stroke="#000000" stroke-width="1"/><polyline id="SvgjsPolyline2095" points="0.92,258.89 6.87,259.69 15.6,261.83 46.94,272.18 64.27,277.01" fill="none" stroke="#000000" stroke-width="1"/><polyline id="SvgjsPolyline2096" points="0.47,115.34 7.4,125.13 15.18,137.95 22.21,151.2 28.67,164.74 35.82,181.26 43.55,200.78 60.69,248.81 65.72,259.7 70.54,267.29 74.48,271.8 79.12,275.6 84.38,278.47 90.05,280.41 95.92,281.64 104.86,282.67 113.85,283.11 125.84,283.1" fill="none" stroke="#000000" stroke-width="1"/><polyline id="SvgjsPolyline2097" points="464.27,599.16 473.52,577.02 482.69,558.13 492.96,539.82 502.63,524.64 511.24,512.35 522.09,497.99 561.86,449.13 576.71,430.28 589.31,413.48 599.78,398.84" fill="none" stroke="#000000" stroke-width="1"/><polyline id="SvgjsPolyline2098" points="591.52,2.1 598.73,11.68" fill="none" stroke="#000000" stroke-width="1"/><polyline id="SvgjsPolyline2099" points="1.76,246.92 6.29,250.86 11.08,254.48 16.09,257.77 23.93,262.19 32.05,266.07 40.36,269.5 48.84,272.53 57.44,275.17" fill="none" stroke="#000000" stroke-width="1"/><polyline id="SvgjsPolyline2100" points="0.39,136.49 5.64,143.8 12.07,153.93 17.96,164.38 24.74,177.76 32.21,194.14 37.99,207.98 52.88,247.25 56.62,255.43 59.55,260.66 62.93,265.62 66.88,270.13 71.46,274 73.98,275.62 76.63,277.03 82.21,279.21 88.02,280.7 93.93,281.7" fill="none" stroke="#000000" stroke-width="1"/><polyline id="SvgjsPolyline2101" points="477.61,598.04 485.88,578.75 495.07,559.87 505.2,541.47 514.59,526.12 531.4,501.27 575.76,440.8 599.82,406.38" fill="none" stroke="#000000" stroke-width="1"/><polyline id="SvgjsPolyline2102" points="0.1,223.13 16.61,248.16 22.49,254.96 26.88,259.05 34.1,264.41 41.94,268.82 50.2,272.39 61.6,276.11" fill="none" stroke="#000000" stroke-width="1"/><polyline id="SvgjsPolyline2103" points="0.29,157.64 5.52,164.96 10.39,172.53 14.95,180.29 20.62,190.86 25.91,201.63 32.09,215.3 45.8,248.58 49.96,256.56 53.21,261.6 59.04,268.44 61.26,270.45 66.13,273.95 68.75,275.4 74.27,277.76 80.02,279.47 85.88,280.72" fill="none" stroke="#000000" stroke-width="1"/><polyline id="SvgjsPolyline2104" points="489.84,599.81 496.86,583.24 505.8,564.24 514.08,548.26 525.96,527.41 535.38,512.07 546.77,494.43 581.88,442.12 600,414.54" fill="none" stroke="#000000" stroke-width="1"/><polyline id="SvgjsPolyline2105" points="1.51,203.32 6.52,210.79 12.77,221.04 18.59,231.53 25.46,244.86 30.21,252.5 33.86,257.26 37.92,261.67 44.84,267.41 49.94,270.57 58.11,274.33 66.66,277.13 75.41,279.22 84.28,280.78 96.19,282.2 108.16,282.98 120.16,283.19 135.15,282.7 150.09,281.41 164.94,279.31 176.73,277.07 188.42,274.34 202.87,270.34 222.84,263.86 236.91,258.67 239.54,257.23 244.48,253.82 253.41,245.83 261.64,237.1 281.59,214.69 294.13,201.78" fill="none" stroke="#000000" stroke-width="1"/><polyline id="SvgjsPolyline2106" points="0.16,178.8 8.67,191.14 16.28,204.07 25.79,222.78 36.93,247.37 41.37,255.2 46.71,262.44 53.15,268.71 60.68,273.61 66.15,276.06 71.84,277.96 83.55,280.55" fill="none" stroke="#000000" stroke-width="1"/><polyline id="SvgjsPolyline2107" points="503.19,598.88 510.17,582.29 518.94,563.21 528.35,544.44 538.33,525.96 557.99,492.28 598.92,425.88" fill="none" stroke="#000000" stroke-width="1"/><polyline id="SvgjsPolyline2108" points="516.55,597.93 523.36,581.27 530.59,564.79 538.21,548.48 548.91,527 567.33,492.62 600,435.27" fill="none" stroke="#000000" stroke-width="1"/><polyline id="SvgjsPolyline2109" points="528.8,599.59 542.16,566.17 556.83,533.29 575.28,495.56 598.95,450.39" fill="none" stroke="#000000" stroke-width="1"/><polyline id="SvgjsPolyline2110" points="542.13,598.28 553.75,567.4 566.32,536.89 580.99,504.01 599.1,466.12" fill="none" stroke="#000000" stroke-width="1"/><polyline id="SvgjsPolyline2111" points="554.43,599.54 564.34,571.22 574.95,543.17 586.23,515.36 599.32,485.08" fill="none" stroke="#000000" stroke-width="1"/><polyline id="SvgjsPolyline2112" points="567.71,597.73 575.17,574.92 583.03,552.25 592.37,526.91 599.98,507.34" fill="none" stroke="#000000" stroke-width="1"/><polyline id="SvgjsPolyline2113" points="580.05,598.53 588.89,569.86 599.31,538.55" fill="none" stroke="#000000" stroke-width="1"/><polyline id="SvgjsPolyline2114" points="592.41,599.09 599.9,573.15" fill="none" stroke="#000000" stroke-width="1"/></g></svg>