<?xml version="1.0" encoding="iso-8859-1"?>
<!-- Generator: Adobe Illustrator 19.0.0, SVG Export Plug-In . SVG Version: 6.00 Build 0)  -->
<svg version="1.1" id="Capa_1" xmlns="http://www.w3.org/2000/svg" xmlns:xlink="http://www.w3.org/1999/xlink" x="0px" y="0px"
	 viewBox="0 0 480.256 480.256" style="enable-background:new 0 0 480.256 480.256;" xml:space="preserve">
<g>
	<g>
		<g>
			<path d="M336.128,0h-192c-17.673,0-32,14.327-32,32v104c0.026,22.08,17.92,39.974,40,40h40v32h5.328l-71.84,268.12l15.448,4.136
				L214.016,208h18.112v272h16V208h18.112l72.952,272.256l15.448-4.136L282.8,208h5.328v-32h40c22.08-0.026,39.974-17.92,40-40V32
				C368.128,14.327,353.801,0,336.128,0z M272.128,192h-64v-16h64V192z M352.128,136c0,13.255-10.745,24-24,24h-176
				c-13.255,0-24-10.745-24-24V32c0-8.837,7.163-16,16-16h192c8.837,0,16,7.163,16,16V136z"/>
			<path d="M240.128,24c-35.346,0-64,28.654-64,64c0,35.346,28.654,64,64,64c35.346,0,64-28.654,64-64
				C304.088,52.67,275.458,24.04,240.128,24z M240.128,136c-26.51,0-48-21.49-48-48s21.49-48,48-48c26.51,0,48,21.49,48,48
				C288.102,114.499,266.627,135.974,240.128,136z"/>
			<path d="M240.128,48c-22.091,0-40,17.909-40,40s17.909,40,40,40c22.091,0,40-17.909,40-40
				C280.102,65.92,262.208,48.026,240.128,48z M240.128,112c-13.255,0-24-10.745-24-24s10.745-24,24-24s24,10.745,24,24
				S253.383,112,240.128,112z"/>
			<rect x="144.128" y="32" width="16" height="16"/>
		</g>
	</g>
</g>
<g>
</g>
<g>
</g>
<g>
</g>
<g>
</g>
<g>
</g>
<g>
</g>
<g>
</g>
<g>
</g>
<g>
</g>
<g>
</g>
<g>
</g>
<g>
</g>
<g>
</g>
<g>
</g>
<g>
</g>
</svg>
