<?xml version="1.0" encoding="UTF-8"?>
<svg xmlns="http://www.w3.org/2000/svg" xmlns:xlink="http://www.w3.org/1999/xlink">
    <symbol viewBox="0 0 469.17 469.17" id="1passport">
        <path d="M154.585 134.152c-53.019 0-96 42.981-96 96s42.981 96 96 96 96-42.981 96-96-42.981-96-96-96zm71.047 60h-34.598c-3.309-16.58-8.477-29.981-13.754-40.32 21.142 6.309 38.497 20.969 48.352 40.32zm-47.047 36c0 7.142-.535 13.703-1.27 20h-45.457c-.738-6.297-1.274-12.859-1.274-20 0-7.145.527-13.705 1.258-20h45.489c.727 6.295 1.254 12.856 1.254 20zm-26.328-79.766c.789-.023 1.531-.234 2.328-.234.805 0 1.55.215 2.351.238 6.004 9.211 13.305 23.782 17.726 43.762H134.51c4.442-20.049 11.77-34.613 17.747-43.766zm-20.367 3.446c-5.258 10.317-10.43 23.733-13.742 40.32h-34.61a79.865 79.865 0 0148.352-40.32zm-57.305 76.32c0-6.946 1.168-13.57 2.84-20h38.293c-.668 6.336-1.133 12.926-1.133 20 0 7.078.477 13.66 1.156 20H77.425c-1.672-6.43-2.84-13.054-2.84-20zm8.953 36h34.649c3.344 16.617 8.519 30.133 13.68 40.313-21.13-6.313-38.477-20.969-48.329-40.313zm73.371 43.766c-.789.024-1.527.234-2.324.234s-1.535-.211-2.328-.234c-5.734-8.82-13.203-23.424-17.726-43.766h40.11c-4.517 20.329-11.978 34.926-17.732 43.766zm20.402-3.453c5.168-10.19 10.34-23.695 13.676-40.313h34.645c-9.852 19.342-27.196 33.997-48.321 40.313zm16.122-56.313c.676-6.34 1.152-12.922 1.152-20 0-7.074-.461-13.664-1.129-20h38.289c1.672 6.43 2.84 13.055 2.84 20 0 6.946-1.168 13.57-2.84 20h-38.312zm-118.848 124h160v16h-160zm263.103-84.345l8.284-30.908 15.455 4.142-8.285 30.909zm-37.27 139.059l28.985-108.178 15.454 4.141-28.985 108.178z" />
        <path d="M434.858 50.792L249.402 1.098A32.049 32.049 0 00241.101 0c-14.129.001-27.058 9.43-30.89 23.726l-16.726 62.426h-166.9c-8.836 0-16 7.163-16 16v320c0 8.837 7.164 16 16 16h184.801l111.664 29.92a32.038 32.038 0 008.301 1.098c14.129 0 27.058-9.43 30.89-23.726l95.246-355.461c4.575-17.07-5.558-34.617-22.629-39.191zM26.585 422.152v-320h240c8.824 0 16 7.178 16 16v288c0 8.822-7.176 16-16 16h-240zm415.449-336.31l-95.246 355.461c-1.875 6.988-8.222 11.868-15.438 11.868-1.39 0-2.789-.186-4.16-.554l-55.793-14.95c15.37-2.335 27.187-15.49 27.187-31.514V279.309l8.195 2.196 8.285-30.91-15.457-4.141-1.023 3.824V123.129l16.328 4.376 18.922 61.862 13.246 3.55-1.254-57.129 23.402 6.271 10.285 18.137 8.832 2.366-1.519-25.253 13.942-21.111-8.832-2.366-17.973 10.565c-5.824-1.559-14.703-3.939-23.406-6.271l29.652-48.846-13.246-3.55-47.317 44.114c-9.305-2.493-19.457-5.215-24.957-6.687-5.39-10.074-15.886-17.004-28.105-17.004h-56.539l15.617-58.284c1.875-6.987 8.223-11.867 15.438-11.868 1.39 0 2.789.186 4.16.554l185.457 49.694a15.893 15.893 0 019.715 7.455 15.889 15.889 0 011.602 12.138z" />
        <path d="M337.715 232.073l4.093-15.467 15.204 4.023-4.093 15.467zm30.367 8.067l4.093-15.466 15.204 4.023-4.093 15.467zm-60.732-16.11l4.092-15.467 15.204 4.023-4.092 15.467z" />
    </symbol>
    <symbol viewBox="0 0 74 74" id="2print-photo">
        <g clip-path="url(#bclip0)">
            <path d="M71.533 18.494v-1.46a3.7 3.7 0 00-3.7-3.7H66.6v-3.7a3.7 3.7 0 00-3.7-3.7h-1.233V3.466A2.467 2.467 0 0059.2 1H14.8a2.467 2.467 0 00-2.467 2.467v2.466H11.1a3.7 3.7 0 00-3.7 3.7v3.7H6.167a3.7 3.7 0 00-3.7 3.7v1.46A3.7 3.7 0 000 21.968V60.2a2.467 2.467 0 002.467 2.467h7.4v9.866A2.467 2.467 0 0012.333 75h49.334a2.467 2.467 0 002.466-2.467v-9.866h7.4A2.467 2.467 0 0074 60.2V21.967a3.7 3.7 0 00-2.467-3.473zM62.9 8.4c.681 0 1.233.552 1.233 1.233v3.7h-2.466V8.4H62.9zM14.8 3.467h44.4v9.866H14.8V3.467zM9.867 9.633c0-.68.552-1.233 1.233-1.233h1.233v4.933H9.867v-3.7zm-4.934 7.4c0-.68.553-1.233 1.234-1.233h61.666c.681 0 1.234.552 1.234 1.233v1.234H4.933v-1.234zM25.9 47.867a3.7 3.7 0 01-7.4 0h7.4zm-3.7 6.166a6.174 6.174 0 006.167-6.166h33.3v16.757l-13.928-13.93a1.444 1.444 0 00-.897-.36c-.335.006-.653.15-.88.395l-12.36 13.388-8.11-7.3a1.233 1.233 0 00-1.655 0L12.333 67.278V47.867h3.7a6.174 6.174 0 006.167 6.166zm43.167-6.166c.68 0 1.233.552 1.233 1.233v2.467c0 .68-.552 1.233-1.233 1.233h-1.234v-4.933h1.234zM9.867 52.8H8.633A1.233 1.233 0 017.4 51.567V49.1c0-.681.552-1.233 1.233-1.233h1.234V52.8zm2.466 19.733v-1.92l12.334-11.216L36.17 69.75a1.234 1.234 0 101.65-1.833l-2.389-2.15 11.47-12.42 14.765 14.766v4.42H12.333zm51.8-12.333v-4.933h1.234a3.7 3.7 0 003.7-3.7V49.1a3.7 3.7 0 00-3.7-3.7H8.633a3.7 3.7 0 00-3.7 3.7v2.467a3.7 3.7 0 003.7 3.7h1.234V60.2h-7.4V21.967c0-.681.552-1.234 1.233-1.234h66.6c.681 0 1.233.552 1.233 1.234V23.2H7.4a1.233 1.233 0 000 2.467h64.133V60.2h-7.4z" />
            <path d="M9.867 31.833a3.7 3.7 0 100 7.4 3.7 3.7 0 000-7.4zm0 4.934a1.233 1.233 0 110-2.467 1.233 1.233 0 010 2.467zm9.866-4.934a3.7 3.7 0 100 7.4 3.7 3.7 0 000-7.4zm0 4.934a1.233 1.233 0 110-2.467 1.233 1.233 0 010 2.467zm44.4-4.934a3.7 3.7 0 100 7.4 3.7 3.7 0 000-7.4zm0 4.934a1.233 1.233 0 110-2.467 1.233 1.233 0 010 2.467z" />
        </g>
        <defs>
            <clipPath id="bclip0">
                <path d="M0 0h74v74H0z" />
            </clipPath>
        </defs>
    </symbol>
    <symbol viewBox="0 0 74 74" id="3printer">
        <g clip-path="url(#cclip0)">
            <g clip-path="url(#cclip1)">
                <path d="M73.916 31.187c-.01-.03-.014-.06-.027-.088a1.221 1.221 0 00-.21-.329L63.182 19.222a7.416 7.416 0 00-5.476-2.422H51.8V4.467A2.467 2.467 0 0049.334 2H24.667A2.467 2.467 0 0022.2 4.467V16.8h-5.905a7.416 7.416 0 00-5.476 2.422L.321 30.77a1.222 1.222 0 00-.21.33c-.012.028-.017.057-.027.087-.04.111-.064.228-.07.346-.001.024-.014.044-.014.067v23.433a7.407 7.407 0 007.4 7.4h8.634l-4.44 5.92a2.467 2.467 0 001.973 3.947h7.166l-.097.213A2.467 2.467 0 0022.882 76h28.236a2.467 2.467 0 002.246-3.487l-.097-.213h7.167a2.467 2.467 0 001.973-3.947l-4.44-5.92H66.6a7.407 7.407 0 007.4-7.4V31.6c0-.023-.012-.043-.013-.067a1.188 1.188 0 00-.07-.346zm-49.25-26.72h24.668V24.2H24.667V4.467zM12.645 20.882a4.94 4.94 0 013.651-1.615H22.2V24.2h-1.233a1.233 1.233 0 000 2.467h32.067a1.233 1.233 0 000-2.467H51.8v-4.933h5.905a4.94 4.94 0 013.651 1.615l8.622 9.485H4.022l8.622-9.485zM55.5 59.145l-2.466-3.289V53.8a3.7 3.7 0 00-3.7-3.7H24.667a3.7 3.7 0 00-3.7 3.7v2.056l-2.467 3.29V50.1a8.643 8.643 0 018.634-8.633h19.733A8.643 8.643 0 0155.5 50.1v9.045zm-4.933-4.112H23.434V53.8c0-.681.552-1.233 1.233-1.233h24.667c.68 0 1.233.552 1.233 1.233v1.233zm-27.685 18.5l5.046-11.1h18.145l5.05 11.1h-28.24zm29.264-3.7l-4.142-9.113-.014-.03a1.201 1.201 0 00-.23-.331c-.026-.027-.056-.048-.083-.073a1.234 1.234 0 00-.267-.18 1.233 1.233 0 00-.543-.14H27.134a1.233 1.233 0 00-.542.139 1.232 1.232 0 00-.267.18c-.028.025-.057.046-.083.073a1.204 1.204 0 00-.23.331l-.014.03-4.143 9.114h-8.288l9.25-12.333h28.367l9.25 12.333h-8.288zm19.388-14.8a4.933 4.933 0 01-4.934 4.934h-8.633V50.1c-.008-6.127-4.973-11.093-11.1-11.1H27.134c-6.128.008-11.093 4.973-11.1 11.1v9.867H7.4a4.933 4.933 0 01-4.933-4.934v-22.2h69.067v22.2z" />
                <path d="M65.367 43.933a3.7 3.7 0 100-7.4 3.7 3.7 0 000 7.4zm0-4.933a1.233 1.233 0 110 2.467 1.233 1.233 0 010-2.467zm0 9.867a1.233 1.233 0 100-2.467 1.233 1.233 0 000 2.467zm0 3.7a1.233 1.233 0 100-2.467 1.233 1.233 0 000 2.467zm0 3.7a1.233 1.233 0 100-2.467 1.233 1.233 0 000 2.467zm-33.3 11.1h9.867a1.233 1.233 0 100-2.467h-9.867a1.233 1.233 0 100 2.467zM44.4 68.6H29.6a1.233 1.233 0 100 2.467h14.8a1.233 1.233 0 000-2.467zM6.167 39c.681 0 1.233-.552 1.233-1.233v-1.234a1.233 1.233 0 00-2.466 0v1.234c0 .68.552 1.233 1.233 1.233zm0 12.333c.681 0 1.233-.552 1.233-1.233v-7.4a1.233 1.233 0 00-2.466 0v7.4c0 .681.552 1.233 1.233 1.233z" />
            </g>
        </g>
        <defs>
            <clipPath id="cclip0">
                <path d="M0 0h74v74H0z" />
            </clipPath>
            <clipPath id="cclip1">
                <path transform="translate(0 2)" d="M0 0h74v74H0z" />
            </clipPath>
        </defs>
    </symbol>
    <symbol viewBox="0 0 74 74" id="4video-camera">
        <g clip-path="url(#dclip0)">
            <path d="M73.466 30.947a1.086 1.086 0 00-1.076-.017l-13.538 7.453v-2.597a4.997 4.997 0 00-4.991-4.99h-2.823c3.818-2.45 6.352-6.733 6.352-11.596 0-2.445-.649-4.846-1.877-6.945a1.086 1.086 0 10-1.875 1.097 11.584 11.584 0 011.58 5.848c0 6.394-5.202 11.595-11.596 11.595S32.027 25.594 32.027 19.2c0-6.394 5.201-11.596 11.595-11.596 2.723 0 5.37.962 7.451 2.71a1.086 1.086 0 101.397-1.663 13.78 13.78 0 00-8.848-3.22c-6.724 0-12.335 4.846-13.531 11.228a9.959 9.959 0 00-7.7-3.64c-5.5 0-9.974 4.474-9.974 9.974a9.96 9.96 0 003.772 7.803 4.996 4.996 0 00-4.986 4.99v.176H6.781l-5.23-2.477c-.688-.352-1.573.209-1.55.981v13.478c-.024.773.863 1.333 1.55.982l5.23-2.477h4.422v17.128a4.997 4.997 0 004.991 4.991h28.282a1.086 1.086 0 100-2.172H16.194a2.822 2.822 0 01-2.818-2.819v-27.79a2.822 2.822 0 012.818-2.82h37.667a2.822 2.822 0 012.818 2.82v27.79a2.822 2.822 0 01-2.818 2.82H48.82a1.086 1.086 0 000 2.171h5.04a4.997 4.997 0 004.992-4.99v-8.621L72.39 62.41c.69.408 1.634-.15 1.61-.951V31.882c0-.385-.203-.74-.534-.936zM2.173 36.182l3.278 1.553v6.94l-3.278 1.552V36.183zm5.45 8.094v-6.143h3.58v6.143h-3.58zm6.966-21.284c0-4.302 3.5-7.802 7.803-7.802 4.302 0 7.802 3.5 7.802 7.802s-3.5 7.802-7.802 7.802-7.803-3.5-7.803-7.802zm14.006 7.802a10.01 10.01 0 003.217-4.53 13.873 13.873 0 004.396 4.53h-7.613zM71.827 59.62l-12.975-7.144V40.863l12.975-7.144v25.902z" />
            <path d="M38.085 19.2a5.543 5.543 0 005.537 5.537A5.543 5.543 0 0049.16 19.2a5.544 5.544 0 00-5.537-5.537 5.543 5.543 0 00-5.537 5.537zm8.902 0a3.369 3.369 0 01-3.365 3.364 3.369 3.369 0 01-3.365-3.364 3.369 3.369 0 013.365-3.365 3.369 3.369 0 013.365 3.365zm-24.595 7.706a3.917 3.917 0 003.913-3.913 3.917 3.917 0 00-3.913-3.913 3.917 3.917 0 00-3.913 3.913 3.918 3.918 0 003.913 3.913zm0-5.653a1.741 1.741 0 110 3.482 1.741 1.741 0 01-.001-3.482zm25.342 31.262V40.666a2.537 2.537 0 00-2.534-2.534H33.452a1.086 1.086 0 100 2.172H45.2c.2 0 .362.162.362.362v11.849c0 .2-.163.362-.362.362H24.855a.362.362 0 01-.362-.362V40.666c0-.2.163-.362.362-.362h4.253a1.086 1.086 0 100-2.172h-4.253a2.537 2.537 0 00-2.534 2.534v11.849a2.537 2.537 0 002.534 2.534H45.2a2.537 2.537 0 002.534-2.534zm-6.864 6.309a1.086 1.086 0 000 2.172h2.71a1.086 1.086 0 100-2.172h-2.71zm-7.197 0a1.086 1.086 0 000 2.172h2.71a1.086 1.086 0 100-2.172h-2.71zm-7.198 0a1.086 1.086 0 100 2.172h2.71a1.086 1.086 0 100-2.172h-2.71z" />
        </g>
        <defs>
            <clipPath id="dclip0">
                <path d="M0 0h74v74H0z" />
            </clipPath>
        </defs>
    </symbol>
    <symbol viewBox="0 0 74 61" id="5camera">
        <path d="M58.102 17.429a1.45 1.45 0 00-1.446 1.452 1.45 1.45 0 001.446 1.452 1.45 1.45 0 001.445-1.452 1.45 1.45 0 00-1.445-1.452z" />
        <path d="M69.664 11.619H53.792l-4.583-9.21A4.31 4.31 0 0045.331 0H28.669a4.31 4.31 0 00-3.878 2.41l-4.583 9.209h-2.864v-1.452c0-2.403-1.945-4.357-4.336-4.357h-2.89c-2.392 0-4.337 1.954-4.337 4.357v1.452H4.336C1.946 11.619 0 13.574 0 15.976v40.667C0 59.045 1.945 61 4.336 61h65.328C72.054 61 74 59.045 74 56.643V15.976c0-2.402-1.945-4.357-4.336-4.357zm-42.288-7.91a1.437 1.437 0 011.293-.804h16.662c.55 0 1.046.308 1.293.803l3.936 7.911H23.44l3.936-7.91zM8.672 10.166a1.45 1.45 0 011.445-1.453h2.89a1.45 1.45 0 011.446 1.453v1.452H8.672v-1.452zM2.89 26.128h18.276A18.956 18.956 0 0018.21 36.31a18.9 18.9 0 002.956 10.167H2.89V26.128zM37 20.333c8.691 0 15.898 7.076 15.898 15.977 0 8.89-7.197 15.976-15.898 15.976-8.709 0-15.898-7.094-15.898-15.977 0-8.889 7.196-15.976 15.898-15.976zm34.11 36.31c0 .8-.649 1.452-1.446 1.452H4.336a1.45 1.45 0 01-1.445-1.452V49.38h20.556A18.758 18.758 0 0037 55.191c5.12 0 10.023-2.111 13.553-5.81H71.11v7.262zm0-10.167H52.832A18.906 18.906 0 0055.79 36.31c0-3.633-1.035-7.152-2.956-10.167H71.11v20.333zm0-23.238H50.552A18.757 18.757 0 0037 17.428a18.757 18.757 0 00-13.553 5.81H2.89v-7.262c0-.8.648-1.452 1.445-1.452h65.328a1.45 1.45 0 011.445 1.452v7.262z" />
        <path d="M41.336 5.81h-8.672c-.798 0-1.445.65-1.445 1.452 0 .802.647 1.452 1.445 1.452h8.672c.798 0 1.445-.65 1.445-1.452 0-.802-.647-1.452-1.445-1.452zM37 23.238c-7.172 0-13.008 5.864-13.008 13.072 0 7.207 5.835 13.071 13.008 13.071 7.172 0 13.008-5.864 13.008-13.072 0-7.207-5.836-13.07-13.008-13.07zm0 23.238c-5.579 0-10.117-4.56-10.117-10.166 0-5.606 4.538-10.167 10.117-10.167 5.579 0 10.117 4.56 10.117 10.166 0 5.606-4.538 10.167-10.117 10.167z" />
        <path d="M37 29.048c-3.985 0-7.227 3.257-7.227 7.262a1.45 1.45 0 001.446 1.452c.798 0 1.445-.65 1.445-1.453 0-2.402 1.945-4.357 4.336-4.357.798 0 1.445-.65 1.445-1.452 0-.802-.647-1.452-1.445-1.452zm29.773-11.619h-2.89a1.45 1.45 0 00-1.446 1.452 1.45 1.45 0 001.446 1.452h2.89c.799 0 1.446-.65 1.446-1.452 0-.802-.647-1.452-1.446-1.452z" />
    </symbol>
    <symbol viewBox="0 0 84 74" id="6frame">
        <path d="M59.6 36.509a5.631 5.631 0 00-5.626-5.625 5.631 5.631 0 00-5.625 5.625 5.631 5.631 0 005.625 5.625 5.631 5.631 0 005.625-5.625zm-8.802 0a3.18 3.18 0 013.176-3.177 3.18 3.18 0 013.177 3.177 3.18 3.18 0 01-3.177 3.176 3.18 3.18 0 01-3.176-3.176z" />
        <path d="M82.344 22.835a4.672 4.672 0 01-4.666-4.666c0-.676-.548-1.224-1.224-1.224H63.013L47.146 7.326A5.631 5.631 0 0041.784 0a5.631 5.631 0 00-5.362 7.326l-15.866 9.619H7.115c-.676 0-1.224.548-1.224 1.224a4.672 4.672 0 01-4.667 4.666C.548 22.835 0 23.384 0 24.06v42.826c0 .676.548 1.224 1.224 1.224a4.672 4.672 0 014.667 4.667c0 .676.548 1.224 1.224 1.224H63.99a1.224 1.224 0 000-2.448H8.233a7.134 7.134 0 00-5.785-5.786V25.178a7.134 7.134 0 005.785-5.785h67.102a7.134 7.134 0 005.785 5.785v40.588a7.134 7.134 0 00-5.785 5.785h-5.726a1.224 1.224 0 000 2.449h6.845c.676 0 1.224-.548 1.224-1.224a4.672 4.672 0 014.666-4.667c.676 0 1.224-.548 1.224-1.224V24.06c0-.675-.548-1.224-1.224-1.224zM41.784 2.448a3.18 3.18 0 013.177 3.177 3.18 3.18 0 01-3.177 3.177 3.18 3.18 0 01-3.176-3.177 3.18 3.18 0 013.176-3.177zm-4.128 6.994a5.611 5.611 0 004.128 1.808c1.63 0 3.1-.697 4.129-1.808l12.377 7.503H25.279l12.377-7.503z" />
        <path d="M11.575 25.106h3.788a1.224 1.224 0 000-2.449H10.9c-.433 0-.833.229-1.054.601a10.083 10.083 0 01-3.534 3.534c-.372.22-.6.62-.6 1.054v35.253c0 .433.228.833.6 1.054a10.08 10.08 0 013.534 3.533c.22.373.621.601 1.054.601h61.766c.433 0 .834-.228 1.054-.6a10.08 10.08 0 013.534-3.534c.372-.22.6-.621.6-1.054V27.846c0-.433-.228-.834-.6-1.054a10.082 10.082 0 01-3.534-3.534c-.22-.372-.62-.6-1.054-.6H21.023a1.224 1.224 0 000 2.448h50.97a12.555 12.555 0 003.414 3.414v24.895L65.13 43.138a1.223 1.223 0 00-1.731 0l-9.425 9.424L36.39 34.977a1.224 1.224 0 00-1.731 0l-8.877 8.876-5.612-5.612a1.224 1.224 0 00-1.73 0L8.16 48.518V28.52a12.552 12.552 0 003.414-3.414zm7.729 15.732l9.145 9.145a1.22 1.22 0 001.73 0 1.224 1.224 0 000-1.731l-2.667-2.668 8.011-8.01L53.11 55.159l3.654 3.655a1.22 1.22 0 001.731 0 1.224 1.224 0 000-1.731l-2.788-2.79 8.559-8.558 11.142 11.142v5.548a12.55 12.55 0 00-3.414 3.414H11.575a12.55 12.55 0 00-3.414-3.414V51.98l11.143-11.143z" />
    </symbol>
    <symbol viewBox="0 0 74 72" id="7slideshow">
        <path d="M70.3 0H3.7A3.704 3.704 0 000 3.7v64.133a3.704 3.704 0 003.7 3.7h66.6a3.704 3.704 0 003.7-3.7V3.7A3.704 3.704 0 0070.3 0zM3.7 2.467h66.6A1.235 1.235 0 0171.534 3.7v6.167H2.467V3.7A1.235 1.235 0 013.7 2.467zm66.6 66.6H3.7a1.235 1.235 0 01-1.233-1.234v-55.5h69.067v55.5a1.235 1.235 0 01-1.234 1.234z" />
        <path d="M16.034 7.4a1.233 1.233 0 100-2.467 1.233 1.233 0 000 2.467zm-4.934 0a1.233 1.233 0 100-2.467 1.233 1.233 0 000 2.467zm-4.933 0a1.233 1.233 0 100-2.467 1.233 1.233 0 000 2.467zm35.767 51.8a1.233 1.233 0 100-2.467 1.233 1.233 0 000 2.467zM37 59.2a1.233 1.233 0 100-2.467 1.233 1.233 0 000 2.467zm-4.933 0a1.233 1.233 0 100-2.467 1.233 1.233 0 000 2.467zm23.433-37h-37a1.234 1.234 0 00-1.233 1.233v29.6a1.233 1.233 0 001.233 1.234h37a1.233 1.233 0 001.234-1.234v-29.6A1.233 1.233 0 0055.5 22.2zm-1.233 2.467v24.666l-5.18-6.906a1.233 1.233 0 00-1.973 0l-4.244 5.658-4.812-8.02a1.234 1.234 0 00-2.115 0l-4.226 7.043-4.714-9.427a1.234 1.234 0 00-2.206 0L19.734 47.81V24.667h34.533zM28.902 51.8h-8.406L25.9 40.991l4.313 8.625-1.311 2.184zM37 43.097l5.222 8.703H31.779L37 43.097zm7.24 7.272l3.86-5.147 4.934 6.578h-7.935l-.859-1.43zm21.127-25.702a1.233 1.233 0 000-2.467h-4.934a1.234 1.234 0 00-1.233 1.233v29.6a1.233 1.233 0 001.233 1.234h4.934a1.233 1.233 0 000-2.467h-3.7V24.667h3.7zm-51.8-2.467H8.634a1.234 1.234 0 000 2.467h3.7V51.8h-3.7a1.234 1.234 0 000 2.467h4.933a1.233 1.233 0 001.233-1.234v-29.6a1.233 1.233 0 00-1.233-1.233z" />
        <path d="M43.167 37a1.233 1.233 0 100-2.467 1.233 1.233 0 000 2.467z" />
    </symbol>
    <symbol viewBox="0 0 74 79" id="8restore">
        <path d="M69.568 64.215a1.262 1.262 0 00-1.784 0l-.893.892-.892-.892a1.262 1.262 0 00-1.784 1.784l.892.893-.892.892a1.262 1.262 0 001.784 1.785l.892-.893.893.893a1.258 1.258 0 001.784 0 1.262 1.262 0 000-1.785l-.892-.892.892-.892a1.262 1.262 0 000-1.785zM72.57 33.28a1.43 1.43 0 10.001 2.858 1.43 1.43 0 000-2.859zm-4.417 12.156a3.79 3.79 0 00-3.786-3.786 3.79 3.79 0 00-3.786 3.786 3.79 3.79 0 003.786 3.786 3.79 3.79 0 003.786-3.786zm-5.048 0c0-.696.566-1.262 1.262-1.262.696 0 1.262.566 1.262 1.262a1.263 1.263 0 01-2.524 0zM43.804 11.73a1.261 1.261 0 00-.893-.37H13.883a3.79 3.79 0 00-3.786 3.786v8.834H8.835a3.79 3.79 0 00-3.787 3.787v1.262H3.786A3.79 3.79 0 000 32.815v41.65a3.79 3.79 0 003.786 3.786h30.29a3.79 3.79 0 003.787-3.787v-1.262h1.262a3.79 3.79 0 003.786-3.786v-1.262h7.573a3.79 3.79 0 003.786-3.786v-41.65c0-.334-.133-.655-.37-.892L43.804 11.73zm.37 3.939l5.787 5.788h-5.788v-5.788zm-8.835 58.795c0 .696-.566 1.263-1.262 1.263H3.787a1.264 1.264 0 01-1.263-1.263V32.815c0-.696.567-1.262 1.262-1.262h1.262v37.863a3.79 3.79 0 003.787 3.786h26.504v1.262zm5.048-5.048c0 .696-.566 1.262-1.262 1.262H8.835a1.264 1.264 0 01-1.262-1.262v-41.65c0-.695.566-1.261 1.262-1.261h1.262v37.863a3.79 3.79 0 003.786 3.786h26.504v1.262zm10.097-3.786h-36.6a1.264 1.264 0 01-1.263-1.262V15.146c0-.696.566-1.262 1.262-1.262H41.65v8.834c0 .697.565 1.262 1.262 1.262h8.835v40.388c0 .696-.566 1.262-1.262 1.262zM60.58 31.553a1.261 1.261 0 002.313.7L72.99 17.108a1.263 1.263 0 00-1.05-1.962h-5.05V1.263a1.261 1.261 0 00-2.312-.7L54.482 15.708a1.263 1.263 0 001.05 1.962h5.049v13.883zm-2.69-16.407l6.477-9.715v10.977c0 .697.564 1.262 1.262 1.262h3.953l-6.477 9.715V16.408c0-.697-.564-1.262-1.262-1.262H57.89z" />
        <path d="M32.815 29.533c-6.682 0-12.117 5.436-12.117 12.117 0 6.681 5.435 12.117 12.117 12.117 6.68 0 12.116-5.436 12.116-12.117 0-6.681-5.435-12.117-12.116-12.117zm0 21.71c-5.29 0-9.593-4.304-9.593-9.593s4.303-9.592 9.593-9.592 9.592 4.303 9.592 9.592c0 5.29-4.302 9.593-9.592 9.593z" />
        <path d="M34.708 37.864h-2.633l.37-.37a1.262 1.262 0 10-1.785-1.785l-2.524 2.524c-.11.11-.187.239-.249.375-.018.041-.03.082-.044.125a1.262 1.262 0 00-.06.311c-.004.044-.009.086-.007.13.005.134.028.267.077.397.004.01.004.023.008.033l.001.005c.059.141.147.262.248.37.011.012.015.027.026.039l2.524 2.524a1.258 1.258 0 001.785 0 1.262 1.262 0 000-1.784l-.37-.37h2.633c1.044 0 1.893.849 1.893 1.893s-.85 1.893-1.893 1.893h-6.942a1.262 1.262 0 000 2.524h6.942a4.423 4.423 0 004.417-4.417 4.423 4.423 0 00-4.417-4.417z" />
    </symbol>
</svg>
